<svg width="24" height="25" viewBox="0 0 24 25" fill="none" xmlns="http://www.w3.org/2000/svg">
<path d="M10 4.5H6.8C5.11984 4.5 4.27976 4.5 3.63803 4.82698C3.07354 5.1146 2.6146 5.57354 2.32698 6.13803C2 6.77976 2 7.61984 2 9.3V17.7C2 19.3802 2 20.2202 2.32698 20.862C2.6146 21.4265 3.07354 21.8854 3.63803 22.173C4.27976 22.5 5.11984 22.5 6.8 22.5H15.2C16.8802 22.5 17.7202 22.5 18.362 22.173C18.9265 21.8854 19.3854 21.4265 19.673 20.862C20 20.2202 20 19.3802 20 17.7V14.5M11 9.5H15V13.5M14.5 5V3.5M18.4393 6.06066L19.5 5M19.5103 10H21.0103M2 14.8471C2.65194 14.9478 3.31987 15 4 15C8.38636 15 12.2653 12.8276 14.6197 9.5" stroke="#3C58F7" stroke-width="2" stroke-linecap="round" stroke-linejoin="round"/>
</svg>
