<svg width="24" height="25" viewBox="0 0 24 25" fill="none" xmlns="http://www.w3.org/2000/svg">
<path d="M22 8.77V4.73C22 3.14 21.36 2.5 19.77 2.5H15.73C14.14 2.5 13.5 3.14 13.5 4.73V8.77C13.5 10.36 14.14 11 15.73 11H19.77C21.36 11 22 10.36 22 8.77Z" stroke="#3C58F7" stroke-width="2" stroke-linecap="round" stroke-linejoin="round"/>
<path d="M10.5 9.02V4.48C10.5 3.07 9.86 2.5 8.27 2.5H4.23C2.64 2.5 2 3.07 2 4.48V9.01C2 10.43 2.64 10.99 4.23 10.99H8.27C9.86 11 10.5 10.43 10.5 9.02Z" stroke="#3C58F7" stroke-width="2" stroke-linecap="round" stroke-linejoin="round"/>
<path d="M10.5 20.27V16.23C10.5 14.64 9.86 14 8.27 14H4.23C2.64 14 2 14.64 2 16.23V20.27C2 21.86 2.64 22.5 4.23 22.5H8.27C9.86 22.5 10.5 21.86 10.5 20.27Z" stroke="#3C58F7" stroke-width="2" stroke-linecap="round" stroke-linejoin="round"/>
<path d="M14.5 18H20.5" stroke="#3C58F7" stroke-width="2" stroke-linecap="round"/>
<path d="M17.5 21V15" stroke="#3C58F7" stroke-width="2" stroke-linecap="round"/>
</svg>
