<svg width="24" height="25" viewBox="0 0 24 25" fill="none" xmlns="http://www.w3.org/2000/svg">
<path d="M18 7.66C17.94 7.65 17.87 7.65 17.81 7.66C16.43 7.61 15.33 6.48 15.33 5.08C15.33 3.65 16.48 2.5 17.91 2.5C19.34 2.5 20.49 3.66 20.49 5.08C20.48 6.48 19.38 7.61 18 7.66Z" stroke="#3C58F7" stroke-width="2" stroke-linecap="round" stroke-linejoin="round"/>
<path d="M16.97 14.94C18.34 15.17 19.85 14.93 20.91 14.22C22.32 13.28 22.32 11.74 20.91 10.8C19.84 10.09 18.31 9.85 16.94 10.09" stroke="#3C58F7" stroke-width="2" stroke-linecap="round" stroke-linejoin="round"/>
<path d="M5.96998 7.66C6.02998 7.65 6.09998 7.65 6.15998 7.66C7.53998 7.61 8.63998 6.48 8.63998 5.08C8.63998 3.65 7.48998 2.5 6.05998 2.5C4.62998 2.5 3.47998 3.66 3.47998 5.08C3.48998 6.48 4.58998 7.61 5.96998 7.66Z" stroke="#3C58F7" stroke-width="2" stroke-linecap="round" stroke-linejoin="round"/>
<path d="M7 14.94C5.63 15.17 4.12 14.93 3.06 14.22C1.65 13.28 1.65 11.74 3.06 10.8C4.13 10.09 5.66 9.85 7.03 10.09" stroke="#3C58F7" stroke-width="2" stroke-linecap="round" stroke-linejoin="round"/>
<path d="M12 15.13C11.94 15.12 11.87 15.12 11.81 15.13C10.43 15.08 9.32996 13.95 9.32996 12.55C9.32996 11.12 10.48 9.97 11.91 9.97C13.34 9.97 14.49 11.13 14.49 12.55C14.48 13.95 13.38 15.09 12 15.13Z" stroke="#3C58F7" stroke-width="2" stroke-linecap="round" stroke-linejoin="round"/>
<path d="M9.08997 18.28C7.67997 19.22 7.67997 20.76 9.08997 21.7C10.69 22.77 13.31 22.77 14.91 21.7C16.32 20.76 16.32 19.22 14.91 18.28C13.32 17.22 10.69 17.22 9.08997 18.28Z" stroke="#3C58F7" stroke-width="2" stroke-linecap="round" stroke-linejoin="round"/>
</svg>
