<svg width="377" height="261" viewBox="0 0 377 261" fill="none" xmlns="http://www.w3.org/2000/svg">
<path d="M376.845 226.999H0V227.187H376.845V226.999Z" fill="#EBEBEB"/>
<path d="M339.085 239.114H314.123V239.302H339.085V239.114Z" fill="#EBEBEB"/>
<path d="M249.637 241.162H243.088V241.35H249.637V241.162Z" fill="#EBEBEB"/>
<path d="M313.369 232.126H298.906V232.315H313.369V232.126Z" fill="#EBEBEB"/>
<path d="M72.0907 233.391H39.5388V233.58H72.0907V233.391Z" fill="#EBEBEB"/>
<path d="M83.577 233.391H78.8062V233.58H83.577V233.391Z" fill="#EBEBEB"/>
<path d="M169.694 236.569H99.0884V236.757H169.694V236.569Z" fill="#EBEBEB"/>
<path d="M178.527 193.308H32.9189C30.5435 193.308 28.613 191.558 28.613 189.405V3.90237C28.613 1.74958 30.5435 0 32.9189 0H178.535C180.91 0 182.84 1.74958 182.84 3.90237V189.405C182.833 191.558 180.902 193.308 178.527 193.308ZM32.9189 0.170857C30.6491 0.170857 28.8016 1.84526 28.8016 3.90237V189.405C28.8016 191.462 30.6491 193.137 32.9189 193.137H178.535C180.804 193.137 182.652 191.462 182.652 189.405V3.90237C182.652 1.84526 180.804 0.170857 178.535 0.170857H32.9189Z" fill="#EBEBEB"/>
<path d="M341.833 193.308H196.217C193.842 193.308 191.911 191.558 191.911 189.405V3.90237C191.911 1.74958 193.842 0 196.217 0H341.833C344.208 0 346.138 1.74958 346.138 3.90237V189.405C346.138 191.558 344.208 193.308 341.833 193.308ZM196.217 0.170857C193.947 0.170857 192.1 1.84526 192.1 3.90237V189.405C192.1 191.462 193.947 193.137 196.217 193.137H341.833C344.102 193.137 345.95 191.462 345.95 189.405V3.90237C345.95 1.84526 344.102 0.170857 341.833 0.170857H196.217Z" fill="#EBEBEB"/>
<path d="M112.623 88.5248H107.551V227.18H112.623V88.5248Z" fill="#F5F5F5"/>
<path d="M132.679 106.135H127.607V227.188H132.679V106.135Z" fill="#F5F5F5"/>
<path d="M152.547 123.738H147.475V227.187H152.547V123.738Z" fill="#F5F5F5"/>
<path d="M172.422 112H167.35V227.187H172.422V112Z" fill="#F5F5F5"/>
<path d="M192.297 106.135H187.225V227.188H192.297V106.135Z" fill="#F5F5F5"/>
<path d="M212.164 94.3973H207.091V227.187H212.164V94.3973Z" fill="#F5F5F5"/>
<path d="M232.038 100.263H226.966V227.18H232.038V100.263Z" fill="#F5F5F5"/>
<path d="M251.913 94.3973H246.841V227.187H251.913V94.3973Z" fill="#F5F5F5"/>
<path d="M271.78 82.6595H266.708V227.187H271.78V82.6595Z" fill="#F5F5F5"/>
<path d="M291.656 70.9221H286.584V227.18H291.656V70.9221Z" fill="#F5F5F5"/>
<path d="M311.523 59.1915H306.451V227.188H311.523V59.1915Z" fill="#F5F5F5"/>
<path d="M150.015 115.486C149.729 115.486 149.442 115.381 149.224 115.163L106.761 73.8054C106.316 73.3687 106.308 72.6535 106.738 72.2093C107.175 71.765 107.891 71.75 108.336 72.1867L150.113 112.881L208.954 70.0108C209.421 69.6644 210.077 69.7397 210.468 70.1764L229.733 91.9354L309.473 46.3017C310.016 45.9931 310.702 46.1813 311.018 46.7234C311.327 47.2655 311.139 47.9581 310.596 48.2668L230.057 94.3598C229.59 94.6233 229.002 94.5254 228.647 94.1264L209.458 72.4427L150.671 115.276C150.482 115.419 150.249 115.486 150.015 115.486Z" fill="#F0F0F0"/>
<path d="M145.198 226.322L108.139 80.3258L109.993 73.0301H108.063V31.3267H103.089V73.0301H101.16L103.014 80.3258L65.9473 226.322H71.0799L103.089 100.225V227.09H108.063V100.225L140.073 226.322H145.198Z" fill="#E0E0E0"/>
<path d="M133.499 78.8889C137.141 63.4829 127.591 48.0449 112.169 44.4071C96.7469 40.7694 81.2928 50.3094 77.6513 65.7153C74.0097 81.1213 83.5596 96.5593 98.9816 100.197C114.404 103.835 129.858 94.2949 133.499 78.8889Z" fill="#E6E6E6"/>
<path d="M105.578 96.7616C119.106 96.7616 130.073 85.8063 130.073 72.2922C130.073 58.778 119.106 47.8227 105.578 47.8227C92.0498 47.8227 81.083 58.778 81.083 72.2922C81.083 85.8063 92.0498 96.7616 105.578 96.7616Z" fill="#F5F5F5"/>
<path d="M105.576 91.4461C116.165 91.4461 124.75 82.8706 124.75 72.2922C124.75 61.7138 116.165 53.1382 105.576 53.1382C94.9865 53.1382 86.4021 61.7138 86.4021 72.2922C86.4021 82.8706 94.9865 91.4461 105.576 91.4461Z" fill="#E6E6E6"/>
<path d="M111.594 86.7952C119.612 83.4773 123.42 74.2942 120.098 66.2841C116.777 58.2741 107.584 54.4704 99.5657 57.7883C91.5473 61.1062 87.7396 70.2894 91.061 78.2994C94.3824 86.3095 103.575 90.1132 111.594 86.7952Z" fill="#F5F5F5"/>
<path d="M116.188 74.806C117.572 68.9504 113.942 63.0826 108.081 61.6999C102.219 60.3172 96.3449 63.9433 94.9608 69.7989C93.5766 75.6546 97.2065 81.5224 103.068 82.9051C108.93 84.2877 114.804 80.6617 116.188 74.806Z" fill="#E6E6E6"/>
<path d="M108.577 79.5193C112.573 77.8659 114.47 73.2897 112.815 69.2981C111.16 65.3065 106.579 63.4111 102.584 65.0645C98.5878 66.7179 96.6904 71.294 98.3455 75.2856C100.001 79.2772 104.582 81.1727 108.577 79.5193Z" fill="#F5F5F5"/>
<path d="M109.128 72.2922C109.128 74.2497 107.537 75.8383 105.578 75.8383C103.618 75.8383 102.028 74.2497 102.028 72.2922C102.028 70.3346 103.618 68.746 105.578 68.746C107.537 68.746 109.128 70.3346 109.128 72.2922Z" fill="#E6E6E6"/>
<path d="M68.7522 48.6507L69.5285 53.8382L64.1321 55.6527L69.5285 58.4837L74.9099 56.5939L73.9677 51.4816L68.7522 48.6507Z" fill="#E6E6E6"/>
<path d="M105.577 72.2922L66.9653 52.5284" stroke="#E0E0E0" stroke-width="2" stroke-miterlimit="10" stroke-linecap="round" stroke-linejoin="round"/>
<path d="M158.712 40.0976C158.712 36.4309 161.689 33.4569 165.359 33.4569C166.023 33.4569 166.663 33.5548 167.266 33.7355C167.168 33.0729 167.116 32.3878 167.116 31.6951C167.116 23.9327 173.416 17.6384 181.187 17.6384C182.076 17.6384 182.936 17.7212 183.78 17.8793C185.943 14.3406 189.832 11.9765 194.279 11.9765C201.017 11.9765 206.481 17.3824 206.579 24.0908C206.647 24.0908 206.714 24.0832 206.782 24.0832C213.045 24.0832 218.118 29.1503 218.118 35.407C218.118 41.6636 213.045 46.7307 206.782 46.7307H165.148L165.156 46.7231C161.591 46.6253 158.712 43.6965 158.712 40.0976Z" fill="#F0F0F0"/>
<path d="M276.959 36.4537C276.959 34.6844 278.391 33.2538 280.162 33.2538C280.479 33.2538 280.788 33.299 281.082 33.3894C281.036 33.0656 281.006 32.7419 281.006 32.4106C281.006 28.6686 284.044 25.6344 287.79 25.6344C288.219 25.6344 288.634 25.6721 289.041 25.7474C290.081 24.0458 291.957 22.9014 294.098 22.9014C297.346 22.9014 299.977 25.5064 300.029 28.7364C300.06 28.7364 300.097 28.7289 300.127 28.7289C303.142 28.7289 305.592 31.1683 305.592 34.1874C305.592 37.1991 303.15 39.646 300.127 39.646H280.064L280.072 39.6385C278.346 39.6008 276.959 38.1854 276.959 36.4537Z" fill="#F0F0F0"/>
<path d="M71.3899 40.4365C71.3899 39.247 72.3546 38.2832 73.5454 38.2832C73.764 38.2832 73.9675 38.3133 74.1635 38.3736C74.1333 38.1552 74.1182 37.9369 74.1182 37.711C74.1182 35.1963 76.1608 33.1559 78.6781 33.1559C78.9645 33.1559 79.2433 33.1861 79.5147 33.2312C80.2156 32.0868 81.4743 31.3188 82.9138 31.3188C85.0995 31.3188 86.8632 33.0731 86.9008 35.2415C86.9235 35.2415 86.9461 35.2415 86.9687 35.2415C88.9961 35.2415 90.6391 36.8828 90.6391 38.9081C90.6391 40.9335 88.9961 42.5748 86.9687 42.5748H73.4776C72.3245 42.5522 71.3899 41.6035 71.3899 40.4365Z" fill="#F0F0F0"/>
<path d="M188.422 261C269.129 261 334.555 257.184 334.555 252.477C334.555 247.77 269.129 243.954 188.422 243.954C107.715 243.954 42.2891 247.77 42.2891 252.477C42.2891 257.184 107.715 261 188.422 261Z" fill="#F5F5F5"/>
<path d="M104.295 108.913L109.465 105.962C109.465 105.962 111.455 102.898 112.05 102.754C112.646 102.611 119.203 102.754 119.203 102.754C119.203 102.754 118.208 106.993 118.11 107.837C118.012 108.672 111.749 107.837 111.749 107.837L106.677 110.856L104.295 108.913Z" fill="#EBB376"/>
<path d="M56.1418 246.244L50.7303 245.167C50.5344 245.167 50.361 245.31 50.3158 245.498L48.8612 250.904C48.7783 251.288 49.027 251.672 49.4114 251.755C49.4641 251.762 49.5169 251.77 49.5696 251.77C51.484 251.74 52.8708 251.619 55.2751 251.619C56.7523 251.619 61.2141 251.777 63.2566 251.777C65.2991 251.777 65.5629 249.76 64.7263 249.579C60.973 248.766 58.1542 247.629 56.9558 246.56C56.7372 246.349 56.4433 246.236 56.1418 246.244Z" fill="#263238"/>
<path d="M122.369 246.085H116.46C116.264 246.085 116.091 246.228 116.045 246.416L115.088 250.745C115.005 251.129 115.254 251.513 115.638 251.596C115.691 251.604 115.744 251.611 115.797 251.611C117.711 251.581 119.098 251.46 121.502 251.46C122.979 251.46 127.441 251.619 129.484 251.619C131.526 251.619 131.79 249.601 130.953 249.42C127.2 248.607 124.381 247.47 123.183 246.401C122.964 246.19 122.67 246.085 122.369 246.085Z" fill="#263238"/>
<path d="M66.5734 146.641L91.6035 140.302C97.2788 152.679 118.103 203.501 123.153 245.784L114.682 247.93C114.682 247.93 99.6906 185.574 87.1115 167.384C87.1115 167.384 86.4332 195.068 85.0765 199.089C83.9535 202.401 58.1999 246.732 58.1999 246.732L49.834 245.784C49.834 245.784 70.8243 200.534 72.098 194.902C72.9723 191.063 69.1435 162.859 69.1435 162.859C68.4652 160.336 67.4628 149.931 67.4628 149.931C67.4628 149.931 66.694 147.161 66.5734 146.641Z" fill="#407BFF"/>
<path opacity="0.2" d="M87.1048 167.384C88.9589 170.064 90.813 173.528 92.6444 177.488C90.9185 167.745 85.5447 158.311 85.5447 158.311L87.1048 167.384Z" fill="black"/>
<path opacity="0.3" d="M66.5734 146.641L91.6035 140.302C97.2788 152.679 118.103 203.501 123.153 245.784L114.682 247.93C114.682 247.93 99.6906 185.574 87.1115 167.384C87.1115 167.384 86.4332 195.068 85.0765 199.089C83.9535 202.401 58.1999 246.732 58.1999 246.732L49.834 245.784C49.834 245.784 70.8243 200.534 72.098 194.902C72.9723 191.063 69.1435 162.859 69.1435 162.859C68.4652 160.336 67.4628 149.931 67.4628 149.931C67.4628 149.931 66.694 147.161 66.5734 146.641Z" fill="black"/>
<path d="M110.076 109.342C110.076 109.342 98.6653 117.037 95.6581 117.444C94.4597 117.609 91.9876 117.203 89.4326 116.661C85.5586 115.832 81.5189 114.673 81.5189 114.673L81.0139 110.856L80.4788 106.775C81.3832 106.474 93.186 111.322 94.9496 112.015C96.7133 112.708 108.117 105.962 108.117 105.962L110.076 109.342Z" fill="#263238"/>
<path d="M74.7878 144.879L75.5264 147.771L67.4468 149.924L66.6931 146.927L74.7878 144.879Z" fill="black"/>
<path d="M87.5326 141.649L88.2335 144.39L76.4232 147.537L75.6846 144.653L87.5326 141.649Z" fill="black"/>
<path d="M92.884 143.156L89.1231 144.157L88.4297 141.424L91.8816 140.551L92.884 143.156Z" fill="black"/>
<path d="M81.115 146.286L85.7759 145.105L84.9237 141.748L80.2628 142.929L81.115 146.286Z" fill="white"/>
<path d="M91.874 140.542L66.6857 146.927C65.4572 143.607 64.2061 140.264 62.9851 137.004C62.0882 134.617 61.2064 132.276 60.3472 130.009C60.1286 129.43 59.91 128.857 59.6915 128.293C59.4352 127.615 59.179 126.945 58.9302 126.29C58.3725 124.822 57.8374 123.406 57.3173 122.051C56.835 120.786 56.3677 119.574 55.9305 118.43C55.7044 117.842 55.4859 117.27 55.2748 116.713C54.8302 115.553 54.4156 114.469 54.0312 113.475L80.4782 106.775C89.206 121.976 91.874 140.542 91.874 140.542Z" fill="#263238"/>
<path d="M63.641 112.828C66.3618 114.123 71.3889 111.827 71.3889 111.827C71.3889 111.827 73.0546 109.99 72.0597 109.176C70.0398 109.44 70.1679 108.777 69.4368 107.746C69.0148 107.144 68.751 106.398 68.5776 105.608C68.4797 105.194 68.4194 104.764 68.3666 104.335L60.4453 101.497C62.2466 104.403 65.0428 109.907 63.641 112.828Z" fill="#EBB376"/>
<path opacity="0.2" d="M62.8584 104.095C64.2829 107.897 67.8026 108.01 69.4306 107.754C69.0085 107.152 68.7447 106.406 68.5714 105.616L62.8584 104.095Z" fill="black"/>
<path d="M73.1969 89.6915C73.1969 89.6915 75.262 95.9406 72.2774 98.9899C69.2852 102.039 67.2578 90.0906 67.2578 90.0906L73.1969 89.6915Z" fill="#263238"/>
<path d="M63.2489 105.766C65.3065 107.859 68.1102 108.025 70.3261 106.888C71.7506 106.158 72.9339 104.885 73.5217 103.244C73.6046 103.033 73.6649 102.807 73.7252 102.574C74.7352 98.365 74.1021 91.4157 69.5121 89.556C66.2486 88.2007 62.4952 89.7517 61.1461 93.0118C60.7542 93.9379 60.5959 94.9468 60.6713 95.9482C60.9426 100.624 60.8823 103.379 63.2489 105.766Z" fill="#EBB376"/>
<path d="M67.7788 97.2656C67.7487 97.6421 67.9748 97.9508 68.231 97.9508C68.4873 97.9508 68.6833 97.6421 68.6833 97.2581C68.6833 96.8816 68.4798 96.5654 68.231 96.5729C67.9823 96.5729 67.7788 96.8816 67.7788 97.2656Z" fill="#263238"/>
<path d="M72.0903 97.2655C72.0601 97.642 72.2938 97.9582 72.5425 97.9507C72.7912 97.9507 72.9947 97.642 72.9947 97.258C72.9947 96.874 72.7912 96.5729 72.5425 96.5729C72.2938 96.5729 72.0903 96.9042 72.0903 97.2655Z" fill="#263238"/>
<path d="M70.7177 97.4537C71.1699 98.6207 71.7804 99.7125 72.5341 100.714C72.0065 101.09 71.3357 101.218 70.7026 101.053L70.7177 97.4537Z" fill="#D58745"/>
<path d="M73.6652 95.4965C73.5899 95.5342 73.4994 95.5266 73.4316 95.4739C72.9794 95.1276 72.3915 95.0147 71.8413 95.1728C71.7282 95.2179 71.6001 95.1577 71.5549 95.0448C71.5097 94.9318 71.57 94.8038 71.683 94.7587C72.3689 94.5479 73.1226 94.6758 73.6878 95.1125C73.7858 95.1803 73.816 95.3234 73.7481 95.4212C73.7481 95.4212 73.7481 95.4212 73.7481 95.4288C73.7255 95.4589 73.6954 95.4815 73.6652 95.4965Z" fill="#263238"/>
<path d="M66.9283 95.5488C66.8831 95.5488 66.8379 95.5337 66.8002 95.5036C66.7173 95.4133 66.7248 95.2702 66.8153 95.1874C67.3504 94.698 68.089 94.5023 68.7899 94.6604C68.9105 94.6905 68.9783 94.8185 68.9407 94.9314C68.903 95.0443 68.7824 95.1121 68.6618 95.082C68.1041 94.9766 67.5237 95.1347 67.1017 95.5262C67.064 95.5639 66.9961 95.5714 66.9283 95.5488Z" fill="#263238"/>
<path d="M64.1089 90.1207L64.5611 90.9865C63.0386 91.5663 63.4305 93.3431 63.7772 94.1337C64.5234 95.8352 63.6642 98.5683 62.3829 99.7052C62.3829 99.7052 62.3075 98.9598 61.682 99.1631C61.0564 99.3739 61.4182 103.274 62.7371 105.081C62.7371 105.081 60.7851 103.485 59.5415 99.4266C58.3884 95.6771 58.117 92.5224 58.8255 91.0166L64.1089 90.1207Z" fill="#263238"/>
<path d="M58.6224 99.7878C59.1425 100.849 60.062 101.655 61.1774 102.039C62.6547 102.536 63.4762 101.233 63.137 99.7878C62.8205 98.5078 61.6824 96.6707 60.16 96.8138C58.6375 96.9568 58.0044 98.4777 58.6224 99.7878Z" fill="#EBB376"/>
<path d="M64.063 107.648C66.2788 109.199 70.5974 109.704 72.7153 106.888C74.8332 104.072 74.1549 99.5772 74.1549 99.5772C73.8082 101.158 72.7982 102.333 72.7982 102.333C71.6074 100.895 69.5649 101.7 69.5649 101.7C69.5649 101.7 68.8187 100.714 67.8314 100.616C66.8441 100.518 64.0856 100.684 64.0856 100.684C63.1887 100.127 63.1585 97.6046 63.1585 97.6046L62.6159 98.0564C62.6159 98.0488 61.8396 106.097 64.063 107.648Z" fill="#263238"/>
<path d="M69.9871 91.709C69.9871 91.709 75.2328 89.1491 74.6374 86.5968C74.0419 84.0369 72.4818 86.9506 72.4818 86.9506C72.4818 86.9506 73.1903 85.0081 71.8035 84.7371C70.4167 84.466 70.8764 85.6255 70.1303 86.3709C69.3841 87.1163 62.0658 86.0321 59.7067 87.4927C57.3477 88.9534 59.149 94.0054 59.149 94.0054C59.149 94.0054 63.5732 89.2169 69.9871 91.709Z" fill="#263238"/>
<path opacity="0.2" d="M64.063 107.648C66.2788 109.199 70.5974 109.704 72.7153 106.888C74.8332 104.072 74.1549 99.5772 74.1549 99.5772C73.8082 101.158 72.7982 102.333 72.7982 102.333C71.6074 100.895 69.5649 101.7 69.5649 101.7C69.5649 101.7 68.8187 100.714 67.8314 100.616C66.8441 100.518 64.0856 100.684 64.0856 100.684C63.1887 100.127 63.1585 97.6046 63.1585 97.6046L62.6159 98.0564C62.6159 98.0488 61.8396 106.097 64.063 107.648Z" fill="white"/>
<path d="M69.792 103.146C69.3172 103.718 68.6991 104.855 68.6991 104.855C68.5861 104.817 68.473 104.78 68.36 104.735C66.8375 104.185 66.3099 103.432 66.1894 102.755C66.1215 102.386 66.1894 102.039 66.2723 101.768C66.3702 101.452 66.5059 101.256 66.5059 101.256C67.139 102.032 68.5183 102.649 69.2719 102.95C69.5885 103.078 69.792 103.146 69.792 103.146Z" fill="#263238"/>
<path d="M69.2797 102.95L68.9481 103.447C67.5161 102.928 66.574 102.37 66.28 101.776C66.378 101.459 66.5137 101.264 66.5137 101.264C67.1392 102.032 68.526 102.649 69.2797 102.95Z" fill="white"/>
<path d="M68.3598 104.734C66.8374 104.185 66.3098 103.432 66.1892 102.754C66.7017 102.958 67.2971 103.266 67.7644 103.695C68.1187 104.027 68.2845 104.396 68.3598 104.734Z" fill="#DE5753"/>
<path d="M72.377 111.842L71.9323 115.742L80.0722 133.066L79.2657 135.363L76.6052 134.128L70.8018 116.465L66.5359 113.574L69.6411 111.88L72.377 111.842Z" fill="#407BFF"/>
<path d="M63.8222 109.177L69.2111 111.398L69.4297 107.754L73.4016 108.732L73.7408 114.281L69.912 112.723L68.3218 116.276L61.531 111.736L63.8222 109.177Z" fill="#263238"/>
<path opacity="0.2" d="M63.8222 109.177L69.2111 111.398L69.4297 107.754L73.4016 108.732L73.7408 114.281L69.912 112.723L68.3218 116.276L61.531 111.736L63.8222 109.177Z" fill="white"/>
<path opacity="0.2" d="M58.932 126.29C58.3743 124.822 57.8392 123.406 57.3191 122.051C56.8368 120.786 56.3695 119.574 55.9323 118.43C55.7062 117.842 55.4876 117.27 55.2766 116.713C56.068 116.344 57.9522 116.562 58.4873 117.489C60.4469 120.884 58.932 126.29 58.932 126.29Z" fill="black"/>
<path opacity="0.2" d="M68.3746 130.115C68.3746 130.115 67.7943 134.421 62.9858 137.004C62.0889 134.617 61.2071 132.276 60.3478 130.009C60.1293 129.43 59.9107 128.857 59.6921 128.293C59.4359 127.615 59.1796 126.945 58.9309 126.29L67.6586 127.397L68.3746 130.115Z" fill="black"/>
<path opacity="0.2" d="M89.4329 116.66C85.5589 115.832 81.5191 114.673 81.5191 114.673L81.0142 110.855C81.0142 110.855 88.1365 111.616 89.4329 116.66Z" fill="black"/>
<path d="M54.0327 205.609C53.7086 205.609 53.3846 205.466 53.1585 205.195C52.759 204.713 52.8344 203.998 53.3167 203.606C65.8958 193.291 65.6546 177.119 65.421 161.481C65.2477 149.69 65.0818 138.555 70.629 130.973C78.4222 120.335 109.768 103.447 114.969 102.965C118.677 102.596 232.017 71.1322 291.423 54.5457C292.026 54.38 292.651 54.7264 292.817 55.3287C292.983 55.931 292.636 56.5559 292.033 56.7216C285.001 58.6867 119.837 104.787 115.18 105.216C110.71 105.63 79.6808 122.45 72.4605 132.313C67.358 139.278 67.5163 150.052 67.6896 161.451C67.9157 176.87 68.1795 194.345 54.7638 205.353C54.5377 205.526 54.289 205.609 54.0327 205.609Z" fill="#263238"/>
<g opacity="0.4">
<path d="M292.033 56.7216C290.85 57.0529 285.175 58.634 276.537 61.0433C233.916 72.9241 119.046 104.862 115.172 105.216C110.703 105.63 79.6733 122.45 72.4529 132.313C67.3504 139.278 67.5087 150.052 67.6821 161.451C67.9082 176.87 68.172 194.353 54.7487 205.353C54.5377 205.526 54.289 205.609 54.0327 205.609C53.7086 205.609 53.3846 205.473 53.1585 205.202C52.759 204.72 52.8344 204.005 53.3167 203.606C65.8958 193.291 65.6546 177.126 65.421 161.488C65.2401 149.698 65.0743 138.555 70.629 130.981C78.4222 120.335 109.768 103.447 114.961 102.965C118.458 102.619 218.865 74.7763 280.23 57.6702C284.134 56.5785 287.873 55.5395 291.423 54.5457C292.026 54.38 292.644 54.7264 292.817 55.3287C292.983 55.931 292.629 56.5559 292.033 56.7216Z" fill="white"/>
</g>
<path opacity="0.2" d="M292.032 56.7216C290.849 57.0529 285.174 58.634 276.537 61.0433C277.539 59.8236 278.835 58.6867 280.23 57.6702C284.134 56.5785 287.872 55.5395 291.422 54.5457C292.025 54.38 292.643 54.7264 292.816 55.3287C292.982 55.931 292.628 56.5559 292.032 56.7216Z" fill="black"/>
<path d="M61.7346 127.909L67.6662 127.397C67.6662 127.397 70.7563 125.439 71.3592 125.567C71.9622 125.688 77.8561 128.556 77.8561 128.556C77.8561 128.556 75.1729 131.99 74.7358 132.712C74.2911 133.435 68.9625 130.055 68.9625 130.055L63.0913 130.68L61.7346 127.909Z" fill="#EBB376"/>
<path d="M54.0325 113.468C51.3418 115.396 44.3249 131.041 45.0711 133.465C45.8172 135.882 67.629 131.116 67.629 131.116L66.6643 127.036H54.9369L57.7255 122.646C57.7255 122.646 59.4439 120.975 58.3888 117.09C57.6276 114.289 54.0325 113.468 54.0325 113.468Z" fill="#263238"/>
<path d="M281.285 115.042L276.815 112.933C276.815 112.933 274.584 108.604 273.891 107.919C273.205 107.234 270.024 109.914 270.024 110.374C270.024 110.833 272.346 115.215 272.949 115.471C273.552 115.727 275.654 115.471 275.654 115.471L279.905 117.526L281.285 115.042Z" fill="#9F5B53"/>
<path d="M291.715 88.2687L292.612 85.0689C292.612 85.0689 294.029 80.8978 293.878 79.934C293.727 78.9628 292.8 76.5836 292.8 76.5836C292.8 76.5836 288.881 81.3495 288.881 81.9443C288.881 82.5391 290.441 84.6999 290.441 84.6999L289.703 88.2763H291.715V88.2687Z" fill="#9F5B53"/>
<path d="M295.16 112.098C295.16 112.098 291.784 107.904 290.789 104.004C289.794 100.104 292.801 87.4177 292.801 87.4177L289.628 86.5744C289.628 86.5744 285.89 99.5319 285.732 104.26C285.573 108.988 292.643 122.864 292.643 122.864L295.16 112.098Z" fill="#407BFF"/>
<path opacity="0.2" d="M293.118 120.809L292.635 122.857C292.635 122.857 290.208 118.084 288.226 113.175C289.862 114.334 291.61 116.194 292.68 119.13C292.876 119.688 293.02 120.245 293.118 120.809Z" fill="black"/>
<path d="M313.037 121.269C313.006 122.037 312.893 122.91 312.713 123.874C312.366 125.748 311.778 127.969 311.107 130.416C310.753 131.704 310.384 133.082 310.007 134.535C308.326 141.062 307.414 143.66 306.17 151.995L282.316 146.34C282.316 146.34 283.982 136.108 288.18 125.447C288.881 123.655 289.665 121.848 290.509 120.071C291.858 117.263 293.403 114.538 295.144 112.091C295.144 112.091 299.003 115.614 311.122 117.722C312.607 117.986 313.112 119.258 313.037 121.269Z" fill="#407BFF"/>
<path opacity="0.2" d="M310.037 118.573C310.007 119.341 312.894 122.91 312.72 123.874C312.396 124.092 312.012 124.333 311.575 124.596C303.51 129.294 292.913 126.908 288.195 125.455C288.896 123.663 290.426 120.35 291.278 118.573L296.938 119.83C296.931 119.823 306.201 117.722 310.037 118.573Z" fill="black"/>
<path d="M300.337 113.544C301.204 113.212 308.319 114.982 307.792 115.132C307.264 115.283 304.611 123.414 300.903 122.804C297.195 122.195 297.247 114.718 300.337 113.544Z" fill="#407BFF"/>
<path d="M268.124 246.77L263.647 247.742L261.032 237.449L265.516 236.486L268.124 246.77Z" fill="#9F5B53"/>
<path d="M262.532 245.875H268.102C268.29 245.875 268.448 246.003 268.494 246.191L269.398 250.272C269.473 250.633 269.24 250.994 268.878 251.07C268.833 251.077 268.78 251.085 268.727 251.085C266.926 251.055 265.614 250.942 263.353 250.942C261.959 250.942 257.753 251.085 255.832 251.085C253.91 251.085 253.653 249.187 254.445 249.014C257.98 248.246 260.64 247.177 261.771 246.168C261.974 245.973 262.245 245.867 262.532 245.875Z" fill="#263238"/>
<path d="M261.017 246.68C260.708 246.703 260.392 246.62 260.135 246.447C259.962 246.304 259.879 246.086 259.909 245.867C259.909 245.739 259.977 245.619 260.098 245.566C260.603 245.303 262.087 246.214 262.246 246.319C262.283 246.342 262.306 246.379 262.298 246.425C262.291 246.47 262.261 246.507 262.215 246.515C261.824 246.605 261.417 246.665 261.017 246.68ZM260.331 245.724C260.286 245.717 260.233 245.732 260.188 245.754C260.158 245.754 260.12 245.792 260.12 245.882C260.105 246.025 260.158 246.176 260.263 246.274C260.776 246.507 261.364 246.537 261.899 246.357C261.424 246.048 260.889 245.837 260.331 245.724Z" fill="#407BFF"/>
<path d="M262.187 246.515H262.134C261.659 246.259 260.747 245.25 260.838 244.768C260.868 244.602 261.018 244.482 261.184 244.482C261.35 244.459 261.516 244.512 261.644 244.625C262.172 245.054 262.285 246.372 262.292 246.439C262.292 246.477 262.27 246.515 262.239 246.537C262.224 246.53 262.202 246.522 262.187 246.515ZM261.267 244.655H261.214C261.071 244.655 261.064 244.738 261.056 244.768C260.996 245.062 261.584 245.83 262.051 246.183C262.021 245.664 261.832 245.159 261.508 244.753C261.441 244.693 261.358 244.655 261.267 244.655Z" fill="#407BFF"/>
<path d="M306.374 152.649C306.374 152.649 302.515 171.066 293.464 176.012C292.423 176.584 291.3 176.976 290.117 177.141C290.117 177.141 280.945 180.883 273.016 184.467C268.192 186.643 263.828 188.774 262.268 189.956C258.138 193.103 268.26 242.11 268.26 242.11L261.379 242.193C261.379 242.193 246.916 198.788 249.358 187.404C251.8 176.012 277.719 158.575 277.719 158.575L281.721 147.605L306.374 152.649Z" fill="#263238"/>
<path opacity="0.2" d="M293.463 176.012C292.423 176.584 291.3 176.976 290.117 177.142C290.117 177.142 280.945 180.883 273.016 184.467C278.118 175.101 287.215 169.01 287.215 169.01L293.463 176.012Z" fill="black"/>
<path d="M325.752 246.77L321.275 247.742L318.66 237.449L323.144 236.486L325.752 246.77Z" fill="#9F5B53"/>
<path d="M320.16 245.875H325.729C325.918 245.875 326.076 246.003 326.121 246.191L327.026 250.272C327.101 250.633 326.867 250.994 326.506 251.07C326.46 251.077 326.408 251.085 326.355 251.085C324.554 251.055 323.242 250.942 320.981 250.942C319.587 250.942 315.381 251.085 313.459 251.085C311.537 251.085 311.281 249.187 312.072 249.014C315.607 248.246 318.268 247.177 319.398 246.168C319.602 245.973 319.873 245.867 320.16 245.875Z" fill="#263238"/>
<path d="M318.646 246.68C318.337 246.703 318.02 246.62 317.764 246.447C317.591 246.304 317.508 246.086 317.538 245.867C317.538 245.739 317.606 245.619 317.726 245.566C318.231 245.303 319.716 246.214 319.874 246.319C319.912 246.342 319.935 246.379 319.927 246.425C319.919 246.47 319.889 246.507 319.844 246.515C319.452 246.605 319.045 246.665 318.646 246.68ZM317.96 245.724C317.915 245.717 317.862 245.732 317.817 245.754C317.787 245.754 317.749 245.792 317.749 245.882C317.734 246.025 317.787 246.176 317.892 246.274C318.405 246.507 318.992 246.537 319.528 246.357C319.053 246.048 318.518 245.837 317.96 245.724Z" fill="#407BFF"/>
<path d="M319.813 246.515H319.76C319.285 246.259 318.373 245.25 318.464 244.768C318.494 244.602 318.645 244.482 318.81 244.482C318.976 244.459 319.142 244.512 319.27 244.625C319.798 245.054 319.911 246.372 319.918 246.439C319.918 246.477 319.896 246.515 319.866 246.537C319.851 246.53 319.828 246.522 319.813 246.515ZM318.893 244.655H318.841C318.697 244.655 318.69 244.738 318.682 244.768C318.622 245.062 319.21 245.83 319.677 246.183C319.647 245.664 319.459 245.159 319.135 244.753C319.067 244.693 318.984 244.655 318.893 244.655Z" fill="#407BFF"/>
<path d="M307.919 117.444C306.796 118.166 301.626 117.91 301.626 117.91L299.184 120.531L298.958 116.186C298.958 116.186 297.338 115.509 297.775 115.042C299.244 115.042 300.232 114.643 300.895 113.995C301.943 112.971 302.154 111.33 302.139 109.689C302.139 109.674 302.139 109.651 302.139 109.628L302.146 109.621L306.57 107.355L309.623 105.789C308.206 108.913 306.148 114.726 307.919 117.444Z" fill="#9F5B53"/>
<path opacity="0.2" d="M308.049 108.417C306.586 112.106 302.758 113.755 300.896 113.996C301.944 112.972 302.155 111.33 302.14 109.689C302.147 109.666 302.147 109.644 302.147 109.621L306.571 107.355C306.564 107.972 308.275 107.852 308.049 108.417Z" fill="black"/>
<path d="M310.859 108.266C310.859 108.266 313.738 109.802 314.695 107.972C315.652 106.143 314.288 106.067 315.69 105.42C317.092 104.772 319.104 104.321 318.645 102.95C318.185 101.588 316.768 101.422 318.343 99.9688C319.926 98.5157 320.273 96.3323 317.906 95.9257C315.539 95.5192 316.444 93.6971 316.323 92.8915C316.203 92.0859 314.876 91.6116 313.437 91.9127C311.997 92.2139 311.394 90.0832 310.512 89.4206C309.623 88.7581 308.394 89.5787 308.07 90.4747C307.746 91.3706 306.895 90.1735 305.621 90.0305C304.347 89.8874 304.656 91.2125 304.257 92.4548C303.857 93.6971 303.088 92.8915 302.184 93.9155C301.28 94.9244 301.197 101.919 310.859 108.266Z" fill="#263238"/>
<path d="M312.11 103.974C309.955 107.362 308.726 109.598 306.299 110.698C305.99 110.841 305.651 110.969 305.289 111.074C300.571 112.459 296.682 107.919 297.926 103.432C298.137 102.679 298.438 101.881 298.83 101.068C300.511 97.5367 303.767 93.9152 307.648 94.3971C311.055 94.7886 313.497 97.8605 313.105 101.271C312.984 102.227 312.645 103.153 312.11 103.974Z" fill="#9F5B53"/>
<path d="M305.471 101.731C305.313 102.062 304.981 102.22 304.762 102.1C304.551 101.979 304.529 101.625 304.702 101.302C304.875 100.978 305.2 100.812 305.411 100.933C305.622 101.053 305.652 101.407 305.471 101.731Z" fill="#263238"/>
<path d="M301.815 99.6975C301.656 100.029 301.317 100.187 301.106 100.066C300.895 99.946 300.872 99.5921 301.046 99.2684C301.219 98.9446 301.543 98.779 301.754 98.8994C301.973 99.0199 301.988 99.3964 301.815 99.6975Z" fill="#263238"/>
<path d="M302.893 100.503C301.958 101.279 300.918 101.919 299.81 102.408C300.082 102.98 300.587 103.402 301.205 103.56L302.893 100.503Z" fill="#892B29"/>
<path d="M307.656 100.872C307.573 100.88 307.497 100.849 307.444 100.782C307.128 100.33 306.623 100.051 306.073 100.029C305.952 100.036 305.854 99.946 305.847 99.8255C305.839 99.7051 305.93 99.6072 306.05 99.5997C306.751 99.6072 307.399 99.9535 307.799 100.526C307.874 100.624 307.851 100.752 307.761 100.827C307.761 100.827 307.761 100.827 307.753 100.827C307.723 100.849 307.686 100.865 307.656 100.872Z" fill="#263238"/>
<path d="M302.079 105.578C303.111 105.917 304.242 105.729 305.109 105.074C305.154 105.028 305.162 104.961 305.124 104.916C305.086 104.87 305.018 104.863 304.966 104.901C304.966 104.901 304.958 104.901 304.958 104.908C304.144 105.495 303.096 105.661 302.139 105.36C302.079 105.337 302.019 105.367 301.996 105.428C301.996 105.435 301.996 105.435 301.996 105.443C301.973 105.503 302.004 105.563 302.064 105.586C302.071 105.571 302.071 105.571 302.079 105.578Z" fill="#263238"/>
<path d="M301.492 96.5806C301.476 96.5429 301.469 96.4977 301.484 96.4526C301.537 96.3472 301.665 96.2944 301.77 96.3472C301.77 96.3472 301.77 96.3472 301.778 96.3472C302.419 96.6333 302.878 97.213 303.006 97.8981C303.022 98.0186 302.939 98.124 302.818 98.1391C302.697 98.1541 302.592 98.0713 302.577 97.9508C302.456 97.4088 302.087 96.9645 301.582 96.7387C301.529 96.701 301.499 96.6408 301.492 96.5806Z" fill="#263238"/>
<path d="M304.581 94.7059C305.681 94.8415 306.224 96.1816 306.224 96.1816C306.224 96.1816 308.914 97.183 310.067 97.9811C311.221 98.7791 311.002 100.202 310.957 100.564C310.912 100.925 310.03 101.256 310.03 101.256C310.03 101.256 308.394 105.096 307.957 106.158L308.183 109.696C308.183 109.696 312.524 107.272 315.095 101.926C317.665 96.5807 306.94 91.875 306.94 91.875L304.581 94.7059Z" fill="#263238"/>
<path d="M311.463 109.335C310.46 109.885 309.277 110.013 308.177 109.689C306.722 109.252 306.805 107.762 307.883 106.813C308.847 105.977 310.784 105.157 311.907 106.128C313.038 107.092 312.691 108.65 311.463 109.335Z" fill="#9F5B53"/>
<path d="M307.791 115.132L301.799 116.856L299.214 120.35L299.923 116.073C299.923 116.073 299.274 115.087 300.337 113.543L296.689 114.296L294.489 117.978L298.769 116.969L299.071 121.238L301.558 118.302L303.601 121.524L309.668 117.677L307.791 115.132Z" fill="#407BFF"/>
<path opacity="0.2" d="M307.791 115.132L301.799 116.856L299.214 120.35L299.923 116.073C299.923 116.073 299.274 115.087 300.337 113.543L296.689 114.296L294.489 117.978L298.769 116.969L299.071 121.238L301.558 118.302L303.601 121.524L309.668 117.677L307.791 115.132Z" fill="black"/>
<path d="M282.641 143.878L281.706 147.597L306.367 152.649L306.736 148.516L282.641 143.878Z" fill="black"/>
<path d="M293.653 145.821C293.457 145.542 287.97 144.368 287.45 144.759C287.45 144.759 286.379 148.426 286.568 148.81C286.749 149.194 292.092 149.939 292.582 150.045C293.08 150.143 293.849 146.1 293.653 145.821ZM292.145 149.555C291.738 149.473 287.352 148.855 287.201 148.539C287.05 148.223 287.932 145.211 287.932 145.211C288.354 144.887 292.869 145.859 293.027 146.085C293.185 146.318 292.552 149.638 292.145 149.555Z" fill="white"/>
<path d="M292.349 147.078L291.264 146.852C291.06 146.807 290.849 146.935 290.797 147.13L290.789 147.145C290.721 147.379 290.864 147.612 291.106 147.657L292.198 147.861C292.425 147.906 292.643 147.748 292.673 147.514C292.703 147.311 292.56 147.115 292.349 147.078Z" fill="white"/>
<path d="M306.367 152.65C306.367 152.65 306.842 180.523 306.058 188.639C305.274 196.755 325.571 241.275 325.571 241.275H318.992C318.992 241.275 299.056 208.689 294.489 198.66C289.914 188.632 286.545 164.712 286.545 164.712L306.367 152.65Z" fill="#263238"/>
<path d="M313.12 119.333C312.103 117.03 296.479 120.44 295.069 120.041C293.66 119.642 278.993 113.506 278.993 113.506L277.727 116.796C277.727 116.796 290.879 124.333 293.75 125.507C296.622 126.689 308.138 126.125 311.055 124.852C313.972 123.58 313.723 120.681 313.12 119.333Z" fill="#407BFF"/>
<path d="M310.354 59.4925L305.621 29.3536L280.689 46.9716L289.002 50.4802C280.998 68.8059 255.033 122.496 210.355 162.083C153.285 212.656 73.439 237.532 72.6401 237.781L77.0568 252.176C80.4484 251.137 160.777 226.148 220.356 173.347C267.838 131.275 294.534 75.7778 302.915 56.3529L310.354 59.4925Z" fill="url(#paint0_linear_141_60)"/>
<path opacity="0.4" d="M305.832 54.2221L305.621 29.3536L280.689 46.9716L289.002 50.4802C280.998 68.8059 255.033 122.496 210.354 162.084C153.285 212.656 73.439 237.532 72.6401 237.781L74.042 246.906C77.4336 245.867 157.762 223.137 217.341 170.335C264.824 128.263 290.012 72.0133 298.393 52.5883L305.832 54.2221Z" fill="url(#paint1_linear_141_60)"/>
<path d="M301.476 60.7723C301.363 60.7723 301.243 60.7573 301.13 60.7196L286.644 56.0441C286.048 55.8559 285.724 55.2159 285.913 54.6211C286.101 54.0263 286.742 53.7026 287.337 53.8908L301.823 58.5663C302.418 58.7546 302.743 59.3945 302.554 59.9893C302.396 60.4712 301.959 60.7723 301.476 60.7723Z" fill="#263238"/>
<g opacity="0.4">
<path d="M301.476 60.7723C301.363 60.7723 301.243 60.7573 301.13 60.7196L286.644 56.0441C286.048 55.8559 285.724 55.2159 285.913 54.6211C286.101 54.0263 286.742 53.7026 287.337 53.8908L301.823 58.5663C302.418 58.7546 302.743 59.3945 302.554 59.9893C302.396 60.4712 301.959 60.7723 301.476 60.7723Z" fill="white"/>
</g>
<path d="M128.075 201.717C127.45 201.717 126.945 201.212 126.945 200.587C126.945 164.643 137.399 159.915 139.358 159.351L172.626 136.123C172.649 136.108 172.671 136.093 172.694 136.078L300.354 60.4412C300.889 60.125 301.582 60.2981 301.906 60.8327C302.223 61.3673 302.05 62.0599 301.515 62.3837L173.885 137.998L140.481 161.316C140.338 161.413 140.18 161.481 140.014 161.504C139.931 161.519 129.206 164.147 129.206 200.587C129.206 201.212 128.701 201.717 128.075 201.717Z" fill="#263238"/>
<g opacity="0.4">
<path d="M128.075 201.717C127.45 201.717 126.945 201.212 126.945 200.587C126.945 164.643 137.399 159.915 139.358 159.351L172.626 136.123C172.649 136.108 172.671 136.093 172.694 136.078L300.354 60.4412C300.889 60.125 301.582 60.2981 301.906 60.8327C302.223 61.3673 302.05 62.0599 301.515 62.3837L173.885 137.998L140.481 161.316C140.338 161.413 140.18 161.481 140.014 161.504C139.931 161.519 129.206 164.147 129.206 200.587C129.206 201.212 128.701 201.717 128.075 201.717Z" fill="white"/>
</g>
<path d="M136.757 164.417C136.757 164.417 130.946 168.159 126.529 169.319C125.21 169.673 124.019 169.786 123.145 169.507C119.859 168.468 121.811 162.113 123.771 158.1C124.087 157.445 124.404 156.858 124.698 156.361L130.441 159.907C130.441 159.907 126.959 164.869 127.358 165.163C127.758 165.464 133.124 162.482 133.418 162.384C133.719 162.287 136.757 164.417 136.757 164.417Z" fill="#9747FF"/>
<path opacity="0.2" d="M136.758 164.417C136.758 164.417 130.947 168.159 126.53 169.319C125.181 165.494 124.292 161.202 123.771 158.1C124.088 157.445 124.405 156.858 124.699 156.361L130.442 159.907C130.442 159.907 126.96 164.869 127.359 165.163C127.759 165.464 133.125 162.482 133.419 162.384C133.72 162.287 136.758 164.417 136.758 164.417Z" fill="black"/>
<path d="M165.072 142.561L168.479 139.527C168.479 139.527 169.21 137.403 169.572 137.095C169.934 136.794 176.136 136.304 176.136 136.304C176.136 136.304 176.257 139.587 175.775 140.438C175.285 141.288 170.22 141.65 170.22 141.65L167.507 144.262L165.072 142.561Z" fill="#EEC1BB"/>
<path d="M183.207 213.936C182.235 227.91 179.635 247.741 179.635 247.741L176.288 248.479C176.288 248.479 173.198 231.878 173.688 216.473C173.801 213.002 174.095 209.591 174.638 206.452C174.638 206.452 163.046 202.002 154.997 198.019C151.153 196.122 148.115 194.323 147.535 193.163C145.741 189.587 153.896 181.184 153.896 181.184C154.153 181.388 159.074 184.52 164.802 188.232C172.407 193.156 181.429 199.103 182.906 200.587C183.765 201.453 183.69 206.964 183.207 213.936Z" fill="#EEC1BB"/>
<path opacity="0.2" d="M183.208 213.936C179.681 215.224 176.372 215.999 173.689 216.474C173.802 213.003 174.096 209.592 174.638 206.453C174.638 206.453 163.047 202.003 154.997 198.02L164.803 188.232C172.408 193.156 181.429 199.104 182.906 200.587C183.766 201.453 183.69 206.964 183.208 213.936Z" fill="black"/>
<path d="M157.114 178.866C157.114 178.866 189.274 197.335 193.645 201.506C198.017 205.677 223.25 244.662 223.25 244.662L221.125 246.688C221.125 246.688 200.165 228.716 191.814 211.64L157.114 194.91V178.866Z" fill="#EEC1BB"/>
<path d="M132.679 144.767C132.732 144.797 132.784 144.835 132.845 144.857C133.606 145.256 134.473 145.618 135.407 145.693C138.03 145.927 139.718 145.332 140.683 144.029C140.691 144.029 140.691 144.029 140.691 144.029C142.032 142.087 142.002 138.977 141.263 135.333C140.932 133.662 140.48 132.224 139.854 131.147C139.846 131.139 139.839 131.094 139.831 131.087C139.801 131.042 139.779 130.981 139.748 130.936C138.829 129.438 137.533 128.564 135.626 128.384C134.97 128.324 134.231 128.339 133.417 128.444C126.235 129.378 126.604 141.439 132.679 144.767Z" fill="#EEC1BB"/>
<path opacity="0.2" d="M132.845 144.857C133.606 145.256 134.458 145.512 135.4 145.595C138.023 145.829 139.696 145.151 140.668 143.833C139.462 144.285 137.797 144.624 136.063 144.097C134.963 143.766 133.847 144.165 132.845 144.857Z" fill="black"/>
<path d="M132.364 150.744C131.739 152.762 134.324 153.831 134.324 153.831C138.846 152.356 139.856 150.112 139.856 150.112C136.389 147.899 137.919 142.636 137.919 142.636L137.15 142.937L131.867 143.494C131.867 143.494 133.065 146.385 133.193 147.025C133.193 147.033 133.201 147.04 133.201 147.04C133.887 150.421 132.364 150.744 132.364 150.744Z" fill="#EBB376"/>
<path d="M139.862 131.102C139.862 131.102 140.962 136.078 136.493 138.902C136.493 138.902 135.174 144.413 132.166 144.91C128.066 145.587 123.627 140.242 124.215 134.091C124.984 126.11 136.606 123.851 139.862 131.102Z" fill="#263238"/>
<path d="M138.709 137.125C138.596 136.342 137.782 135.107 136.584 135.461C135.348 135.822 135.084 139.03 138.287 139.293C138.747 139.331 138.943 138.759 138.709 137.125Z" fill="#EBB376"/>
<path d="M221.849 242.253L218.382 244.925C218.231 245.038 218.186 245.242 218.269 245.407L220.032 249.172C220.19 249.503 220.597 249.646 220.929 249.488C220.974 249.465 221.02 249.443 221.057 249.413C222.459 248.298 222.504 248.125 224.291 246.747C225.391 245.904 228.79 243.465 230.305 242.298C231.82 241.131 230.863 239.482 230.139 239.821C226.891 241.357 224.147 242.132 222.64 242.019C222.354 241.997 222.075 242.079 221.849 242.253Z" fill="#263238"/>
<path d="M222.603 242.193C222.565 242.208 222.513 242.2 222.483 242.17C222.452 242.14 222.445 242.095 222.46 242.057C222.528 241.876 223.138 240.258 223.696 240.16C223.824 240.13 223.952 240.182 224.028 240.288C224.186 240.446 224.254 240.672 224.201 240.882C224.103 241.176 223.907 241.432 223.651 241.598C223.327 241.831 222.98 242.034 222.603 242.193ZM222.761 241.884C223.289 241.703 223.734 241.327 223.997 240.83C224.028 240.687 223.975 240.536 223.877 240.431C223.817 240.363 223.764 240.355 223.741 240.37C223.696 240.378 223.651 240.401 223.613 240.431C223.244 240.86 222.95 241.349 222.761 241.884Z" fill="#407BFF"/>
<path d="M222.595 242.23C222.557 242.23 222.519 242.215 222.497 242.185C222.459 242.132 221.751 241.026 221.909 240.363C221.939 240.197 222.045 240.054 222.188 239.972C222.324 239.866 222.512 239.874 222.64 239.987C223.009 240.31 222.896 241.658 222.685 242.147L222.648 242.178C222.625 242.2 222.61 242.215 222.595 242.23ZM222.09 240.378C222.082 240.898 222.241 241.41 222.535 241.839C222.693 241.274 222.685 240.318 222.459 240.122C222.437 240.1 222.376 240.047 222.271 240.13L222.233 240.16C222.158 240.212 222.113 240.288 222.09 240.378Z" fill="#407BFF"/>
<path d="M180.223 245.483L175.844 245.573C175.656 245.581 175.497 245.709 175.46 245.897L174.638 249.97C174.57 250.331 174.811 250.685 175.173 250.753C175.218 250.761 175.271 250.768 175.324 250.768C177.118 250.7 177.261 250.587 179.507 250.542C180.894 250.512 185.077 250.572 186.991 250.535C188.905 250.497 189.117 248.6 188.333 248.442C184.805 247.749 182.137 246.74 180.992 245.754C180.781 245.573 180.509 245.475 180.223 245.483Z" fill="#263238"/>
<path d="M180.615 246.002C180.569 245.995 180.539 245.957 180.532 245.912C180.524 245.867 180.547 245.829 180.584 245.806C180.743 245.701 182.197 244.767 182.71 245.016C182.83 245.068 182.906 245.181 182.898 245.317C182.936 245.535 182.853 245.754 182.687 245.904C182.431 246.085 182.13 246.175 181.813 246.153C181.406 246.145 181.007 246.092 180.615 246.002ZM180.924 245.844C181.459 246.01 182.039 245.972 182.544 245.731C182.65 245.633 182.702 245.483 182.68 245.34C182.672 245.249 182.635 245.212 182.604 245.212C182.559 245.189 182.514 245.181 182.461 245.189C181.919 245.309 181.391 245.528 180.924 245.844Z" fill="#407BFF"/>
<path d="M180.585 246.025C180.555 246.002 180.532 245.965 180.532 245.927C180.54 245.867 180.622 244.549 181.142 244.113C181.263 244 181.429 243.947 181.595 243.962C181.761 243.955 181.911 244.075 181.949 244.241C182.054 244.723 181.158 245.739 180.698 246.002H180.645C180.622 246.018 180.607 246.025 180.585 246.025ZM181.278 244.241C180.969 244.655 180.788 245.159 180.766 245.679C181.225 245.317 181.791 244.542 181.73 244.248C181.723 244.218 181.708 244.135 181.572 244.143H181.519C181.429 244.143 181.346 244.18 181.278 244.241Z" fill="#407BFF"/>
<path d="M156.217 173.919L140.261 180.612C133.667 164.237 124.698 156.361 124.698 156.361C131.089 148.704 142.892 145.181 142.892 145.181C144.535 146.445 146.012 148.185 147.346 150.18C148.65 152.152 149.803 154.374 150.813 156.647C154.491 164.937 156.217 173.919 156.217 173.919Z" fill="#9747FF"/>
<path d="M139.711 134.399C139.711 134.399 144.723 129.294 139.922 125.937C135.114 122.579 130.358 127.066 130.358 127.066C130.358 127.066 118.955 129.934 121.457 137.494C123.959 145.06 125.557 145.693 121.977 149.615C118.397 153.546 114.749 159.343 118.487 162.995C122.218 166.646 135.114 162.731 138.988 157.129C142.854 151.535 135.807 139.662 139.711 134.399Z" fill="#263238"/>
<path d="M155.056 169.01L137.736 174.951C137.736 174.951 141.565 193.811 144.346 196.958C147.127 200.113 165.721 214.719 168.351 213.567C170.981 212.415 188.414 196.958 188.414 196.958L158.892 176.735L155.056 169.01Z" fill="#263238"/>
<path d="M152.531 172.556L156.216 171.337L155.304 169.507L151.815 170.734L152.531 172.556Z" fill="black"/>
<path d="M141.512 174.363L137.736 175.689L138.241 177.292L141.934 176.072L141.512 174.363Z" fill="black"/>
<path d="M142.726 175.809L151.793 172.805L151.115 170.983L142.229 174.107L142.726 175.809Z" fill="black"/>
<path opacity="0.2" d="M150.814 156.647C147.001 156.203 144.853 150.474 144.853 150.474C145.734 150.315 146.563 150.225 147.347 150.18C148.651 152.153 149.804 154.374 150.814 156.647Z" fill="black"/>
<path d="M142.893 145.181C147.038 144.563 156.308 147.921 157.115 147.883C157.921 147.846 166.943 140.784 166.943 140.784L169.279 142.839C169.279 142.839 159.858 152.551 157.921 152.649C155.984 152.755 145.847 152.002 145.847 152.002C145.847 152.002 143.375 151.121 142.893 148.885C142.418 146.649 142.893 145.181 142.893 145.181Z" fill="#9747FF"/>
<defs>
<linearGradient id="paint0_linear_141_60" x1="262.744" y1="106.99" x2="114.577" y2="232.278" gradientUnits="userSpaceOnUse">
<stop stop-color="#407BFF"/>
<stop offset="1" stop-color="#407BFF" stop-opacity="0"/>
</linearGradient>
<linearGradient id="paint1_linear_141_60" x1="252.974" y1="94.093" x2="122.262" y2="225.988" gradientUnits="userSpaceOnUse">
<stop stop-color="white"/>
<stop offset="1" stop-color="white" stop-opacity="0"/>
</linearGradient>
</defs>
</svg>
