<svg width="29" height="26" viewBox="0 0 29 26" fill="none" xmlns="http://www.w3.org/2000/svg">
<path d="M28.6537 12.8048V20.779C28.6537 22.8979 27.3946 24.7909 25.4418 25.6016C24.7935 25.8712 24.1176 26 23.4455 26C22.0956 26 20.7693 25.4708 19.7732 24.4718L12.4007 17.0763L11.6536 16.3271L9.56638 14.2398C9.5565 14.2299 9.54662 14.22 9.53674 14.2101C9.18294 13.8632 8.79949 13.554 8.38047 13.2944C7.89227 12.9792 7.36058 12.7334 6.80122 12.5669C5.96911 12.3271 5.09548 12.1982 4.19023 12.1982C2.6861 12.1982 1.26102 12.555 0 13.1952V5.22101C0 3.10208 1.25905 1.20912 3.21383 0.398414C3.86015 0.12884 4.5381 0 5.21012 0C6.56009 0 7.88634 0.529237 8.8825 1.52825L16.2549 8.92369L17.0021 9.67294L19.0853 11.7602L19.115 11.7899C19.4668 12.1368 19.8522 12.446 20.2712 12.7056C20.7594 13.0208 21.2911 13.2666 21.8505 13.4331C22.6806 13.6729 23.5562 13.8018 24.4615 13.8018C25.9676 13.8018 27.3927 13.445 28.6537 12.8048Z" fill="url(#paint0_linear_121_2385)"/>
<path d="M8.38244 21.6094C8.38244 23.9404 6.50474 25.8294 4.19023 25.8294C1.8777 25.8294 0 23.9424 0 21.6094C0 19.2804 1.8777 17.3914 4.19023 17.3914C6.50474 17.3914 8.38244 19.2784 8.38244 21.6094Z" fill="url(#paint1_linear_121_2385)"/>
<path d="M28.6537 4.39043C28.6537 6.71947 26.776 8.60847 24.4615 8.60847C22.1489 8.60847 20.2712 6.72145 20.2712 4.39043C20.2712 2.05941 22.1489 0.17041 24.4615 0.17041C26.776 0.17041 28.6537 2.05941 28.6537 4.39043Z" fill="url(#paint2_linear_121_2385)"/>
<path d="M28.6537 12.8048V20.7791C28.6537 22.898 27.3946 24.7909 25.4418 25.6017C24.7935 25.8712 24.1176 26.0001 23.4455 26.0001C22.0956 26.0001 20.7693 25.4708 19.7732 24.4718L12.4007 17.0764L11.6536 16.3271L9.56638 14.2399C9.5565 14.23 9.54662 14.2201 9.53674 14.2102C9.18294 13.8633 8.79949 13.5541 8.38047 13.2944C7.89227 12.9793 7.36058 12.7335 6.80122 12.567C5.96911 12.3271 5.09548 12.1983 4.19023 12.1983C2.6861 12.1983 1.26102 12.5551 0 13.1953C0 13.1953 2.24929 3.17945 8.08597 8.29342L19.6249 18.8385C19.9313 19.118 20.2653 19.3638 20.629 19.562C22.3861 20.5214 27.0211 22.0556 28.6537 12.8048Z" fill="url(#paint3_linear_121_2385)"/>
<defs>
<linearGradient id="paint0_linear_121_2385" x1="4.23635" y1="-1.62331" x2="27.0757" y2="31.287" gradientUnits="userSpaceOnUse">
<stop stop-color="#69E0F7"/>
<stop offset="1" stop-color="#3C58F7"/>
</linearGradient>
<linearGradient id="paint1_linear_121_2385" x1="4.19199" y1="17.4722" x2="4.19199" y2="26.2404" gradientUnits="userSpaceOnUse">
<stop stop-color="#69C4F7"/>
<stop offset="1" stop-color="#3C58F7"/>
</linearGradient>
<linearGradient id="paint2_linear_121_2385" x1="24.4633" y1="-0.421443" x2="24.4633" y2="8.79099" gradientUnits="userSpaceOnUse">
<stop stop-color="#69E0F7"/>
<stop offset="1" stop-color="#3C58F7"/>
</linearGradient>
<linearGradient id="paint3_linear_121_2385" x1="0.000948732" y1="16.4195" x2="28.6535" y2="16.4195" gradientUnits="userSpaceOnUse">
<stop stop-color="#3C58F7"/>
<stop offset="1" stop-color="#69E0F7"/>
</linearGradient>
</defs>
</svg>
