<svg width="162" height="26" viewBox="0 0 162 26" fill="none" xmlns="http://www.w3.org/2000/svg">
<path d="M28.6537 12.8048V20.779C28.6537 22.8979 27.3946 24.7909 25.4418 25.6016C24.7935 25.8712 24.1176 26 23.4455 26C22.0956 26 20.7693 25.4708 19.7732 24.4718L12.4007 17.0763L11.6536 16.3271L9.56638 14.2398C9.5565 14.2299 9.54662 14.22 9.53674 14.2101C9.18294 13.8632 8.79949 13.554 8.38047 13.2944C7.89227 12.9792 7.36058 12.7334 6.80122 12.5669C5.96911 12.3271 5.09548 12.1982 4.19023 12.1982C2.6861 12.1982 1.26102 12.555 0 13.1952V5.22101C0 3.10208 1.25905 1.20912 3.21383 0.398414C3.86015 0.12884 4.5381 0 5.21012 0C6.56009 0 7.88634 0.529237 8.8825 1.52825L16.2549 8.92369L17.0021 9.67294L19.0853 11.7602L19.115 11.7899C19.4668 12.1368 19.8522 12.446 20.2712 12.7056C20.7594 13.0208 21.2911 13.2666 21.8505 13.4331C22.6806 13.6729 23.5562 13.8018 24.4615 13.8018C25.9676 13.8018 27.3927 13.445 28.6537 12.8048Z" fill="url(#paint0_linear_121_2384)"/>
<path d="M8.38244 21.6094C8.38244 23.9404 6.50474 25.8294 4.19023 25.8294C1.8777 25.8294 0 23.9424 0 21.6094C0 19.2804 1.8777 17.3914 4.19023 17.3914C6.50474 17.3914 8.38244 19.2784 8.38244 21.6094Z" fill="url(#paint1_linear_121_2384)"/>
<path d="M28.6537 4.39043C28.6537 6.71947 26.776 8.60847 24.4615 8.60847C22.1489 8.60847 20.2712 6.72145 20.2712 4.39043C20.2712 2.05941 22.1489 0.17041 24.4615 0.17041C26.776 0.17041 28.6537 2.05941 28.6537 4.39043Z" fill="url(#paint2_linear_121_2384)"/>
<path d="M28.6537 12.8048V20.7791C28.6537 22.898 27.3946 24.7909 25.4418 25.6017C24.7935 25.8712 24.1176 26.0001 23.4455 26.0001C22.0956 26.0001 20.7693 25.4708 19.7732 24.4718L12.4007 17.0764L11.6536 16.3271L9.56638 14.2399C9.5565 14.23 9.54662 14.2201 9.53674 14.2102C9.18294 13.8633 8.79949 13.5541 8.38047 13.2944C7.89227 12.9793 7.36058 12.7335 6.80122 12.567C5.96911 12.3271 5.09548 12.1983 4.19023 12.1983C2.6861 12.1983 1.26102 12.5551 0 13.1953C0 13.1953 2.24929 3.17945 8.08597 8.29342L19.6249 18.8385C19.9313 19.118 20.2653 19.3638 20.629 19.562C22.3861 20.5214 27.0211 22.0556 28.6537 12.8048Z" fill="url(#paint3_linear_121_2384)"/>
<path d="M46.0678 6.59863C47.9237 6.59863 49.4101 7.1913 50.5308 8.37861C51.6514 9.56593 52.2108 11.1754 52.2108 13.2072V23.0565H48.7558V13.56C48.7558 12.3628 48.4356 11.443 47.7952 10.8008C47.1548 10.1586 46.2812 9.83748 45.1724 9.83748C43.9133 9.83748 42.9211 10.228 42.1977 11.0089C41.4723 11.7899 41.1106 12.9396 41.1106 14.4579V23.0565H37.6537V7.01687H41.1087V9.07039C42.176 7.42321 43.8284 6.59863 46.0678 6.59863Z" fill="white"/>
<path d="M71.3732 16.5114H58.6405C58.8954 17.7086 59.4765 18.6403 60.3838 19.3023C61.289 19.9663 62.4156 20.2973 63.7597 20.2973C65.5721 20.2973 66.9478 19.6353 67.8866 18.3092L70.7348 19.9782C69.1773 22.3092 66.843 23.4747 63.728 23.4747C61.1467 23.4747 59.0456 22.6839 57.4269 21.1001C55.8279 19.4966 55.0274 17.4747 55.0274 15.0367C55.0274 12.6621 55.816 10.664 57.3952 9.03669C58.9528 7.41132 60.9787 6.59863 63.4731 6.59863C65.7975 6.59863 67.7167 7.42321 69.2307 9.0684C70.7447 10.7156 71.5017 12.7156 71.5017 15.0684C71.4997 15.4966 71.4582 15.9782 71.3732 16.5114ZM58.6088 13.6888H68.0131C67.7779 12.4262 67.2502 11.4549 66.43 10.7691C65.6097 10.0853 64.6115 9.74234 63.4395 9.74234C62.1607 9.74234 61.0933 10.0952 60.2395 10.8008C59.3876 11.5084 58.8421 12.4698 58.6088 13.6888Z" fill="white"/>
<path d="M82.9537 7.01697V10.3529H78.9868V18.0517C78.9868 18.7157 79.135 19.1914 79.4355 19.4788C79.7339 19.7682 80.1767 19.9288 80.7637 19.9605C81.3507 19.9922 82.0801 19.9882 82.9557 19.9446V23.0566C80.3111 23.3777 78.4136 23.1478 77.2613 22.3668C76.109 21.5858 75.5338 20.1488 75.5338 18.0517V10.3529H72.5908V7.01697H75.5338V3.55215L78.9888 2.52539V7.01697H82.9537Z" fill="white"/>
<path d="M88.6144 11.443C88.6144 11.9346 88.8694 12.337 89.3813 12.6462C89.8933 12.9574 90.6404 13.2508 91.6207 13.5283C92.3679 13.6987 93.0181 13.8811 93.5716 14.0734C94.125 14.2656 94.712 14.5491 95.3307 14.9237C95.9493 15.2983 96.4237 15.7899 96.7538 16.4004C97.0839 17.0109 97.238 17.7205 97.2183 18.5332C97.2183 20.0734 96.6213 21.2825 95.4275 22.1586C94.2337 23.0367 92.7513 23.4747 90.9803 23.4747C89.4011 23.4747 88.0472 23.1437 86.9166 22.4797C85.786 21.8177 84.9658 20.8979 84.4539 19.7205L87.4285 17.9881C87.9622 19.5283 89.1442 20.2973 90.9803 20.2973C92.7928 20.2973 93.7 19.6987 93.7 18.5015C93.7 17.6254 92.6861 16.9396 90.6601 16.448C89.8933 16.2557 89.2469 16.0634 88.7251 15.8712C88.2013 15.6789 87.6262 15.4014 86.9976 15.0367C86.3691 14.674 85.8888 14.1923 85.5587 13.5937C85.2287 12.9951 85.0725 12.2993 85.0942 11.5084C85.0942 10.0317 85.6477 8.8464 86.7585 7.9465C87.8891 7.04858 89.2865 6.59863 90.9487 6.59863C92.271 6.59863 93.449 6.89199 94.4827 7.48069C95.5165 8.0694 96.311 8.88803 96.8664 9.93461L93.955 11.5699C93.4213 10.3509 92.4193 9.74036 90.9487 9.74036C90.2648 9.74036 89.7055 9.891 89.2687 10.1903C88.8338 10.4916 88.6144 10.9098 88.6144 11.443Z" fill="white"/>
<path d="M107.393 23.4747C105.026 23.4747 103.031 22.6621 101.41 21.0367C99.768 19.3895 98.9477 17.3895 98.9477 15.0367C98.9477 12.6839 99.768 10.6839 101.41 9.03669C103.031 7.41132 105.026 6.59863 107.393 6.59863C109.761 6.59863 111.754 7.41132 113.376 9.03669C115.019 10.6839 115.839 12.6839 115.839 15.0367C115.839 17.3895 115.019 19.3895 113.376 21.0367C111.756 22.6621 109.761 23.4747 107.393 23.4747ZM102.403 15.0367C102.403 16.4916 102.883 17.6987 103.842 18.6621C104.8 19.6254 105.984 20.1051 107.393 20.1051C108.801 20.1051 109.985 19.6234 110.943 18.6621C111.904 17.6987 112.382 16.4916 112.382 15.0367C112.382 13.5818 111.902 12.3746 110.943 11.4113C109.983 10.448 108.801 9.96831 107.393 9.96831C105.986 9.96831 104.802 10.45 103.842 11.4113C102.883 12.3746 102.403 13.5818 102.403 15.0367Z" fill="white"/>
<path d="M136.442 6.59863C138.255 6.59863 139.716 7.18733 140.824 8.36276C141.933 9.54016 142.489 11.1219 142.489 13.11V23.0545H139.034V13.336C139.034 12.2458 138.757 11.3895 138.202 10.7691C137.646 10.1487 136.889 9.83947 135.931 9.83947C134.843 9.83947 133.99 10.1982 133.371 10.9138C132.752 11.6313 132.444 12.6839 132.444 14.0734V23.0565H128.989V13.336C128.989 12.224 128.728 11.3637 128.206 10.7532C127.682 10.1427 126.943 9.83947 125.983 9.83947C124.915 9.83947 124.058 10.2042 123.407 10.9297C122.757 11.6571 122.431 12.7057 122.431 14.0734V23.0565H118.976V7.01687H122.431V8.94155C123.455 7.3796 124.979 6.59863 127.007 6.59863C129.054 6.59863 130.568 7.44303 131.549 9.13382C132.592 7.44502 134.223 6.59863 136.442 6.59863Z" fill="white"/>
<path d="M161.651 16.5114H148.918C149.173 17.7086 149.754 18.6403 150.662 19.3023C151.567 19.9663 152.693 20.2973 154.037 20.2973C155.85 20.2973 157.226 19.6353 158.164 18.3092L161.013 19.9782C159.455 22.3092 157.121 23.4747 154.006 23.4747C151.424 23.4747 149.323 22.6839 147.705 21.1001C146.106 19.4966 145.305 17.4747 145.305 15.0367C145.305 12.6621 146.094 10.664 147.673 9.03669C149.231 7.41132 151.256 6.59863 153.751 6.59863C156.075 6.59863 157.994 7.42321 159.508 9.0684C161.022 10.7156 161.779 12.7156 161.779 15.0684C161.778 15.4966 161.736 15.9782 161.651 16.5114ZM148.887 13.6888H158.291C158.056 12.4262 157.528 11.4549 156.708 10.7691C155.887 10.0853 154.889 9.74234 153.717 9.74234C152.438 9.74234 151.371 10.0952 150.517 10.8008C149.663 11.5084 149.12 12.4698 148.887 13.6888Z" fill="white"/>
<defs>
<linearGradient id="paint0_linear_121_2384" x1="4.23635" y1="-1.62331" x2="27.0757" y2="31.287" gradientUnits="userSpaceOnUse">
<stop stop-color="#69E0F7"/>
<stop offset="1" stop-color="#3C58F7"/>
</linearGradient>
<linearGradient id="paint1_linear_121_2384" x1="4.19199" y1="17.4722" x2="4.19199" y2="26.2404" gradientUnits="userSpaceOnUse">
<stop stop-color="#69C4F7"/>
<stop offset="1" stop-color="#3C58F7"/>
</linearGradient>
<linearGradient id="paint2_linear_121_2384" x1="24.4633" y1="-0.421443" x2="24.4633" y2="8.79099" gradientUnits="userSpaceOnUse">
<stop stop-color="#69E0F7"/>
<stop offset="1" stop-color="#3C58F7"/>
</linearGradient>
<linearGradient id="paint3_linear_121_2384" x1="0.000948732" y1="16.4195" x2="28.6535" y2="16.4195" gradientUnits="userSpaceOnUse">
<stop stop-color="#3C58F7"/>
<stop offset="1" stop-color="#69E0F7"/>
</linearGradient>
</defs>
</svg>
