<svg width="30" height="25" viewBox="0 0 30 25" fill="none" xmlns="http://www.w3.org/2000/svg">
<path fill-rule="evenodd" clip-rule="evenodd" d="M16.7108 0.506531H12.6927C12.3074 0.506527 11.9957 0.506524 11.7431 0.527162C11.4827 0.548436 11.2526 0.593477 11.0393 0.702191C10.7015 0.874299 10.4269 1.14892 10.2548 1.4867C10.146 1.70007 10.101 1.9302 10.0797 2.19058C10.0591 2.44317 10.0591 2.75485 10.0591 3.14011V6.5686V6.57787V7.15824C10.0591 7.5435 10.0591 7.85518 10.0797 8.10778C10.101 8.36816 10.146 8.59829 10.2548 8.81165C10.4269 9.14943 10.7015 9.42405 11.0393 9.59616C11.2526 9.70488 11.4827 9.74992 11.7431 9.77119C11.9957 9.79183 12.3074 9.79183 12.6926 9.79182H14.5338L14.5333 11.9209H5.74062C4.97033 11.9209 4.34363 12.5435 4.34363 13.3087V15.1572C3.22344 15.2414 2.18151 15.7149 1.37824 16.5129C0.489596 17.3951 0 18.5696 0 19.818C0 21.0664 0.489596 22.2409 1.37824 23.1237C2.26689 24.0065 3.44916 24.4928 4.70581 24.4928C5.96246 24.4928 7.14473 24.0065 8.03338 23.1237C8.92202 22.2409 9.41162 21.0664 9.41162 19.818C9.41162 18.5696 8.92202 17.3951 8.03338 16.5123C7.23075 15.7149 6.18883 15.2408 5.06799 15.1566V13.3087C5.06799 12.9406 5.36938 12.6412 5.74062 12.6412H14.5326V15.1572C13.4125 15.2414 12.3705 15.7149 11.5673 16.5129C10.6786 17.3957 10.189 18.5696 10.189 19.8186C10.189 21.067 10.6786 22.2415 11.5673 23.1243C12.4559 24.0071 13.6375 24.4935 14.8948 24.4935C16.1521 24.4935 17.3338 24.0071 18.2224 23.1243C19.111 22.2415 19.6006 21.067 19.6006 19.8186C19.6006 18.5702 19.111 17.3957 18.2224 16.5129C17.4198 15.7156 16.3778 15.2414 15.257 15.1572L15.2577 12.6412H24.0497C24.4203 12.6412 24.7217 12.9406 24.7217 13.3087C24.7217 13.3097 24.7217 13.3107 24.7217 13.3117C24.7217 13.3142 24.7219 13.3167 24.7223 13.319V15.1572C23.6021 15.2414 22.5602 15.7149 21.7569 16.5129C20.8683 17.3957 20.3787 18.5702 20.3787 19.8186C20.3787 21.067 20.8683 22.2415 21.7569 23.1243C22.6456 24.0071 23.8279 24.4935 25.0845 24.4935C26.3412 24.4935 27.5234 24.0071 28.4121 23.1243C29.3007 22.2415 29.7903 21.067 29.7903 19.8186C29.7903 18.5702 29.3007 17.3957 28.4121 16.5129H28.4127C27.6101 15.7156 26.5682 15.2414 25.4473 15.1572V13.3087H25.4467C25.4467 12.5435 24.8206 11.9216 24.0503 11.9209H15.2577V9.79182H16.7108C17.096 9.79183 17.4077 9.79183 17.6603 9.77119C17.9207 9.74992 18.1508 9.70488 18.3642 9.59616C18.7019 9.42405 18.9766 9.14943 19.1487 8.81165C19.2574 8.59829 19.3024 8.36816 19.3237 8.10778C19.3443 7.85519 19.3443 7.54353 19.3443 7.15829V7.15825V3.72975V3.72049V3.1401V3.14006C19.3443 2.75483 19.3443 2.44316 19.3237 2.19058C19.3024 1.9302 19.2574 1.70007 19.1487 1.4867C18.9766 1.14892 18.7019 0.874299 18.3642 0.702191C18.1508 0.593478 17.9207 0.548436 17.6603 0.527162C17.4077 0.506524 17.096 0.506527 16.7108 0.506531ZM10.8019 7.14242V6.76406L13.7067 4.68918L13.7124 4.68512L13.7173 4.69006L15.1669 6.13967L15.167 6.13969C15.2019 6.17466 15.2411 6.21391 15.2782 6.24576C15.321 6.28253 15.3803 6.32696 15.46 6.3573C15.5673 6.39815 15.684 6.40781 15.7966 6.38515C15.8802 6.36833 15.946 6.33425 15.9942 6.30502C16.036 6.2797 16.0812 6.24743 16.1214 6.21869L16.1214 6.21866L18.6015 4.44716V7.14242C18.6015 7.54723 18.6012 7.82851 18.5833 8.04729C18.5658 8.26173 18.5333 8.38322 18.4868 8.47442C18.3859 8.67242 18.2249 8.83341 18.0269 8.9343C17.9357 8.98077 17.8142 9.01331 17.5998 9.03084C17.381 9.04871 17.0998 9.049 16.6949 9.049H12.7085C12.3037 9.049 12.0224 9.04871 11.8036 9.03084C11.5892 9.01331 11.4677 8.98077 11.3765 8.9343C11.1785 8.83341 11.0175 8.67242 10.9166 8.47442C10.8701 8.38322 10.8376 8.26173 10.8201 8.04729C10.8022 7.82851 10.8019 7.54723 10.8019 7.14242ZM18.6015 3.15593V3.5343L15.6967 5.60917L15.691 5.61323L15.6861 5.60829L14.2426 4.16481L14.2365 4.15868C14.2015 4.12371 14.1623 4.08445 14.1252 4.0526C14.0824 4.01583 14.0231 3.9714 13.9434 3.94106C13.8361 3.90021 13.7194 3.89055 13.6068 3.9132C13.5232 3.93002 13.4574 3.9641 13.4092 3.99334C13.3674 4.01866 13.3222 4.05093 13.282 4.07968L13.282 4.07969L13.275 4.08472L10.8019 5.8512V3.15593C10.8019 2.75112 10.8022 2.46985 10.8201 2.25107C10.8376 2.03662 10.8701 1.91513 10.9166 1.82394C11.0175 1.62593 11.1785 1.46494 11.3765 1.36405C11.4677 1.31759 11.5892 1.28504 11.8036 1.26752C12.0224 1.24964 12.3037 1.24935 12.7085 1.24935H16.6949C17.0998 1.24935 17.381 1.24964 17.5998 1.26752C17.8142 1.28504 17.9357 1.31759 18.0269 1.36405C18.2249 1.46494 18.3859 1.62593 18.4868 1.82394C18.5333 1.91513 18.5658 2.03662 18.5833 2.25107C18.6012 2.46985 18.6015 2.75112 18.6015 3.15593ZM3.671 21.2925C3.6697 21.2932 3.66841 21.2932 3.66712 21.2932C3.22085 21.3285 2.77718 21.493 2.44863 21.7448C2.22226 21.9177 1.95644 22.21 1.91764 22.6373C2.63683 23.3395 3.6212 23.7732 4.7071 23.7732C5.79301 23.7732 6.77738 23.3395 7.49657 22.6373C7.45841 22.2107 7.19195 21.9183 6.96558 21.7448C6.63768 21.493 6.19335 21.3279 5.74709 21.2925H5.74386C5.50003 21.2752 5.30924 21.146 5.21934 20.9346C5.15917 20.7941 5.15918 20.6542 5.15919 20.5604V20.5575V20.5446C5.15919 20.3937 5.21481 20.2484 5.31506 20.1354C5.32411 20.1257 5.33317 20.1167 5.34222 20.1084C5.57893 19.825 5.76261 19.4203 5.84669 18.9956C5.93594 18.5497 5.90555 18.1352 5.76261 17.8294C5.58346 17.4471 5.22904 17.2531 4.7071 17.2531C4.18517 17.2531 3.8301 17.4465 3.65159 17.8294C3.50866 18.1352 3.47891 18.549 3.56752 18.9956C3.65159 19.4203 3.83527 19.825 4.07199 20.1084C4.08104 20.1167 4.0901 20.1257 4.0985 20.1354C4.19875 20.2484 4.25437 20.3937 4.25437 20.5446V20.5581C4.25437 20.6519 4.25437 20.7933 4.19422 20.9353C4.10433 21.146 3.91418 21.2758 3.671 21.2925ZM8.05278 21.9594C8.45442 21.3413 8.6879 20.6063 8.6879 19.818C8.6879 17.6373 6.9022 15.8627 4.70775 15.8627C2.51265 15.8627 0.726309 17.6367 0.726309 19.818C0.726309 20.607 0.959789 21.342 1.36143 21.9594C1.73137 21.1659 2.64136 20.6783 3.52742 20.5832C3.20921 20.2086 2.96474 19.6805 2.85608 19.1337C2.73773 18.54 2.78688 17.9682 2.99384 17.5255C3.29329 16.8849 3.90189 16.5322 4.70646 16.5322C5.51167 16.5322 6.11962 16.8849 6.41907 17.5255C6.62539 17.9682 6.67454 18.5394 6.55683 19.1337C6.44882 19.6805 6.20435 20.2086 5.88614 20.5832C6.7722 20.6776 7.68219 21.1659 8.05278 21.9594ZM13.8572 21.2931C13.8569 21.2932 13.8565 21.2932 13.8561 21.2932C13.4099 21.3285 12.9656 21.493 12.6389 21.7448C12.4126 21.9177 12.1468 22.21 12.108 22.6373C12.8265 23.3395 13.8115 23.7732 14.8968 23.7732C15.982 23.7732 16.9664 23.3395 17.6856 22.6373C17.6474 22.2107 17.381 21.9183 17.1546 21.7448C16.8261 21.493 16.3824 21.3279 15.9361 21.2925H15.9329C15.6891 21.2752 15.4983 21.146 15.4084 20.9346C15.3482 20.7941 15.3482 20.6542 15.3482 20.5604V20.5575V20.544C15.3482 20.393 15.4038 20.2478 15.5041 20.1347C15.5131 20.1251 15.5222 20.1161 15.5312 20.1077C15.768 19.8244 15.9516 19.4196 16.0357 18.9949C16.125 18.549 16.0946 18.1346 15.9516 17.8288C15.7725 17.4465 15.4181 17.2524 14.8961 17.2524C14.3742 17.2524 14.0191 17.4458 13.8406 17.8288C13.6977 18.1346 13.6679 18.5484 13.7565 18.9949C13.8406 19.4203 14.0243 19.825 14.261 20.1084C14.2701 20.1161 14.2791 20.1251 14.2875 20.1347C14.3878 20.2484 14.4434 20.3937 14.4434 20.5446V20.5575C14.4434 20.6519 14.4434 20.7933 14.3832 20.9353C14.2933 21.146 14.1032 21.2758 13.86 21.2925C13.8591 21.293 13.8581 21.2931 13.8572 21.2931ZM18.2425 21.9594C18.6441 21.3413 18.8776 20.6063 18.8776 19.818C18.8776 17.6373 17.0912 15.8627 14.8974 15.8627C12.7023 15.8627 10.916 17.6367 10.916 19.818C10.916 20.607 11.1495 21.342 11.5511 21.9594C11.921 21.1659 12.831 20.6783 13.7171 20.5832C13.3989 20.2086 13.1544 19.6805 13.0458 19.1337C12.9274 18.54 12.9765 17.9682 13.1835 17.5255C13.483 16.8849 14.0909 16.5322 14.8961 16.5322C15.7013 16.5322 16.3093 16.8849 16.6087 17.5255C16.8151 17.9682 16.8642 18.5394 16.7465 19.1337C16.6385 19.6805 16.394 20.2086 16.0758 20.5832C16.9619 20.6776 17.8719 21.1659 18.2425 21.9594ZM29.0666 19.818C29.0666 17.6367 27.2809 15.8627 25.0851 15.8627C22.8894 15.8627 21.1031 17.6373 21.105 19.818C21.105 20.607 21.3385 21.342 21.7401 21.9594C22.1101 21.1659 23.0201 20.6783 23.9061 20.5832C23.5879 20.2086 23.3434 19.6805 23.2348 19.1337C23.1164 18.54 23.1656 17.9682 23.3725 17.5255C23.672 16.8849 24.2799 16.5322 25.0851 16.5322C25.8904 16.5322 26.4983 16.8849 26.7978 17.5255C27.0041 17.9682 27.0532 18.5394 26.9355 19.1337C26.8275 19.6805 26.583 20.2086 26.2648 20.5832C27.1509 20.6776 28.0609 21.1659 28.4315 21.9594C28.8331 21.3413 29.0666 20.6063 29.0666 19.818ZM22.2957 22.6379C23.0149 23.3395 23.9999 23.7732 25.0851 23.7732C26.1698 23.7732 27.1548 23.3395 27.8746 22.6373C27.8365 22.2107 27.57 21.9183 27.3436 21.7448C27.0151 21.493 26.5714 21.3279 26.1251 21.2925H26.1219C25.8781 21.2752 25.6873 21.146 25.5974 20.9346C25.5372 20.7941 25.5372 20.6542 25.5372 20.5604V20.5575V20.544C25.5372 20.3936 25.5929 20.2478 25.6931 20.1347C25.7015 20.1251 25.7106 20.1161 25.7196 20.1077C25.9563 19.8244 26.14 19.4196 26.2241 18.9949C26.3133 18.549 26.2829 18.1346 26.14 17.8288C25.9609 17.4465 25.6058 17.2524 25.0845 17.2524C24.5626 17.2524 24.2075 17.4458 24.029 17.8288C23.8861 18.1346 23.8563 18.5484 23.9449 18.9949C24.0296 19.4196 24.2127 19.8244 24.4494 20.1077C24.4591 20.1167 24.4681 20.1257 24.4766 20.1354C24.5768 20.2484 24.6324 20.3937 24.6324 20.5446V20.5581C24.6324 20.6519 24.6324 20.7933 24.5723 20.9353C24.4824 21.146 24.2922 21.2758 24.049 21.2925C24.0478 21.2932 24.0465 21.2932 24.0452 21.2932C23.5989 21.3291 23.1546 21.4936 22.8267 21.7455C22.6003 21.9183 22.3345 22.2107 22.2957 22.6379Z" fill="#3C58F7"/>
</svg>
