<svg width="28" height="25" viewBox="0 0 28 25" fill="none" xmlns="http://www.w3.org/2000/svg">
<path d="M5.65954 20.0066C4.24104 20.0066 2.89911 19.8087 1.88061 19.4492C0.326372 18.9007 0 18.1536 0 17.6236V6.89997C0 6.57103 0.266805 6.3042 0.59577 6.3042C0.924734 6.3042 1.19154 6.57101 1.19154 6.89997C1.19154 6.99975 1.46494 7.31529 2.2773 7.6019C3.17156 7.91764 4.37285 8.09147 5.65965 8.09147C6.94646 8.09147 8.14775 7.91764 9.042 7.6019C9.85434 7.3153 10.1278 6.99975 10.1278 6.89997C10.1278 6.57103 10.3946 6.3042 10.7235 6.3042C11.0525 6.3042 11.3193 6.57101 11.3193 6.89997V17.6236C11.3193 18.1536 10.9929 18.9006 9.43869 19.4492C8.4202 19.8087 7.07827 20.0066 5.65976 20.0066H5.65954ZM1.19149 8.43161V17.6236C1.19149 17.7236 1.46489 18.0389 2.27725 18.3255C3.1715 18.6413 4.37279 18.8151 5.6596 18.8151C6.9464 18.8151 8.14769 18.6413 9.04195 18.3255C9.85428 18.0389 10.1277 17.7236 10.1277 17.6236V8.43161C9.93026 8.53395 9.70218 8.63267 9.43858 8.72586C8.42009 9.08522 7.07816 9.28307 5.65965 9.28307C4.24114 9.28307 2.89922 9.08519 1.88072 8.72564C1.61711 8.63266 1.38902 8.53394 1.19159 8.4316L1.19149 8.43161Z" fill="#3C58F7"/>
<path d="M5.65954 9.28303C4.24104 9.28303 2.89911 9.08516 1.88061 8.72561C0.326372 8.17712 0 7.43009 0 6.90006C0 6.37003 0.326383 5.62306 1.88061 5.07452C2.89911 4.71494 4.24104 4.51709 5.65954 4.51709C7.07805 4.51709 8.41998 4.71496 9.43847 5.07452C10.9927 5.62301 11.3191 6.37003 11.3191 6.90006C11.3191 7.43009 10.9927 8.17706 9.43847 8.72561C8.41998 9.08518 7.07805 9.28303 5.65954 9.28303ZM5.65954 5.70858C4.37274 5.70858 3.17145 5.8824 2.27719 6.19815C1.46486 6.48474 1.19143 6.80029 1.19143 6.90008C1.19143 6.99986 1.46483 7.3154 2.27719 7.60201C3.17145 7.91775 4.37274 8.09158 5.65954 8.09158C6.94635 8.09158 8.14764 7.91775 9.04189 7.60201C9.85423 7.31541 10.1277 6.99986 10.1277 6.90008C10.1277 6.80029 9.85425 6.48476 9.04189 6.19815C8.14764 5.8824 6.94635 5.70858 5.65954 5.70858Z" fill="#3C58F7"/>
<path d="M5.65954 12.8576C4.24104 12.8576 2.89911 12.6598 1.88061 12.3002C0.326372 11.7517 0 11.0047 0 10.4747C0 10.1457 0.266805 9.87891 0.59577 9.87891C0.924734 9.87891 1.19154 10.1457 1.19154 10.4747C1.19154 10.5745 1.46494 10.89 2.2773 11.1766C3.17156 11.4923 4.37285 11.6662 5.65965 11.6662C6.94646 11.6662 8.14775 11.4923 9.042 11.1766C9.85434 10.89 10.1278 10.5745 10.1278 10.4747C10.1278 10.1457 10.3946 9.87891 10.7235 9.87891C11.0525 9.87891 11.3193 10.1457 11.3193 10.4747C11.3193 11.0047 10.9929 11.7517 9.43869 12.3002C8.4202 12.6598 7.07827 12.8576 5.65976 12.8576H5.65954Z" fill="#3C58F7"/>
<path d="M5.65954 16.4319C4.24104 16.4319 2.89911 16.234 1.88061 15.8744C0.326372 15.3259 0 14.5789 0 14.0489C0 13.72 0.266805 13.4531 0.59577 13.4531C0.924734 13.4531 1.19154 13.7199 1.19154 14.0489C1.19154 14.1489 1.46494 14.4642 2.2773 14.7508C3.17156 15.0666 4.37285 15.2404 5.65965 15.2404C6.94646 15.2404 8.14775 15.0666 9.042 14.7508C9.85434 14.4642 10.1278 14.1489 10.1278 14.0489C10.1278 13.72 10.3946 13.4531 10.7235 13.4531C11.0525 13.4531 11.3193 13.7199 11.3193 14.0489C11.3193 14.5789 10.9929 15.3259 9.43869 15.8744C8.4202 16.234 7.07827 16.4319 5.65976 16.4319H5.65954Z" fill="#3C58F7"/>
<path d="M27.4042 6.54269H17.8723C17.5434 6.54269 17.2766 6.27588 17.2766 5.94692V1.18097C17.2766 0.852038 17.5434 0.585205 17.8723 0.585205H27.4042C27.7331 0.585205 28 0.852011 28 1.18097V5.94692C28 6.27586 27.7332 6.54269 27.4042 6.54269ZM18.4682 5.3512H26.8083V1.77675H18.4682V5.3512Z" fill="#3C58F7"/>
<path d="M27.4042 15.4787H17.8723C17.5434 15.4787 17.2766 15.2119 17.2766 14.883V10.117C17.2766 9.78807 17.5434 9.52124 17.8723 9.52124H27.4042C27.7331 9.52124 28 9.78805 28 10.117V14.883C28 15.2119 27.7332 15.4787 27.4042 15.4787ZM18.4682 14.2872H26.8083V10.7128H18.4682V14.2872Z" fill="#3C58F7"/>
<path d="M27.4042 24.4148H17.8723C17.5434 24.4148 17.2766 24.148 17.2766 23.819V19.053C17.2766 18.7241 17.5434 18.4573 17.8723 18.4573H27.4042C27.7331 18.4573 28 18.7241 28 19.053V23.819C28 24.1479 27.7332 24.4148 27.4042 24.4148ZM18.4682 23.2233H26.8083V19.6488H18.4682V23.2233Z" fill="#3C58F7"/>
<path d="M15.4894 23.2235H13.7022C13.3732 23.2235 13.1064 22.9566 13.1064 22.6277V3.56391C13.1064 3.23497 13.3732 2.96814 13.7022 2.96814H15.4894C15.8183 2.96814 16.0851 3.23495 16.0851 3.56391C16.0851 3.89287 15.8183 4.15968 15.4894 4.15968H14.2979V22.0317H15.4894C15.8183 22.0317 16.0851 22.2985 16.0851 22.6275C16.0851 22.9564 15.8183 23.2232 15.4894 23.2232V23.2235Z" fill="#3C58F7"/>
<path d="M17.8723 13.0957H12.5106C12.1817 13.0957 11.9149 12.8289 11.9149 12.4999C11.9149 12.171 12.1817 11.9042 12.5106 11.9042H17.8723C18.2013 11.9042 18.4681 12.171 18.4681 12.4999C18.4681 12.8289 18.2013 13.0957 17.8723 13.0957Z" fill="#3C58F7"/>
<path d="M13.7022 9.5215H12.5107C12.1818 9.5215 11.915 9.25469 11.915 8.92573C11.915 8.59676 12.1818 8.32996 12.5107 8.32996H13.7022C14.0312 8.32996 14.298 8.59676 14.298 8.92573C14.298 9.25469 14.0312 9.5215 13.7022 9.5215Z" fill="#3C58F7"/>
<path d="M13.7022 16.6704H12.5107C12.1818 16.6704 11.915 16.4036 11.915 16.0747C11.915 15.7457 12.1818 15.4789 12.5107 15.4789H13.7022C14.0312 15.4789 14.298 15.7457 14.298 16.0747C14.298 16.4036 14.0312 16.6704 13.7022 16.6704Z" fill="#3C58F7"/>
<path d="M19.0635 2.96851H20.255V4.15999H19.0635V2.96851Z" fill="#3C58F7"/>
<path d="M20.8506 2.96851H22.0421V4.15999H20.8506V2.96851Z" fill="#3C58F7"/>
<path d="M22.6383 2.96851H23.8298V4.15999H22.6383V2.96851Z" fill="#3C58F7"/>
<path d="M19.0635 11.9045H20.255V13.096H19.0635V11.9045Z" fill="#3C58F7"/>
<path d="M20.8506 11.9045H22.0421V13.096H20.8506V11.9045Z" fill="#3C58F7"/>
<path d="M22.6383 11.9045H23.8298V13.096H22.6383V11.9045Z" fill="#3C58F7"/>
<path d="M19.0635 20.8405H20.255V22.0319H19.0635V20.8405Z" fill="#3C58F7"/>
<path d="M20.8506 20.8405H22.0421V22.0319H20.8506V20.8405Z" fill="#3C58F7"/>
<path d="M22.6383 20.8405H23.8298V22.0319H22.6383V20.8405Z" fill="#3C58F7"/>
</svg>
