<svg width="24" height="25" viewBox="0 0 24 25" fill="none" xmlns="http://www.w3.org/2000/svg">
<path d="M0.8 21.3V19.7H1.6V18.9H0.8V17.3H2.4V16.5H0.8V14.9H1.6V14.1H0.8V12.5H2.4V11.7H0.8V10.1H1.6V9.3H0.8V7.7H2.4V6.9H0.8V5.3H1.6V4.5H0.8V2.9H2.4V2.1H0.8V0.5H0V21.7C0 21.8061 0.0421431 21.9079 0.117143 21.9829C0.192143 22.0579 0.293929 22.1 0.4 22.1H24V21.3H0.8Z" fill="#3C58F7"/>
<path d="M4.00006 22.9H4.80006V24.5H4.00006V22.9Z" fill="#3C58F7"/>
<path d="M5.60001 22.9H6.40001V24.5H5.60001V22.9Z" fill="#3C58F7"/>
<path d="M9.59998 22.9H10.4V24.5H9.59998V22.9Z" fill="#3C58F7"/>
<path d="M11.2 22.9H12V24.5H11.2V22.9Z" fill="#3C58F7"/>
<path d="M15.2 22.9H16V24.5H15.2V22.9Z" fill="#3C58F7"/>
<path d="M16.8 22.9H17.6V24.5H16.8V22.9Z" fill="#3C58F7"/>
<path d="M20.8 22.9H21.6V24.5H20.8V22.9Z" fill="#3C58F7"/>
<path d="M22.4 22.9H23.2V24.5H22.4V22.9Z" fill="#3C58F7"/>
<path d="M5.19998 20.4999C5.62427 20.4999 6.03125 20.3313 6.33141 20.0313C6.63141 19.7312 6.79998 19.3242 6.79998 18.8999C6.7982 18.6365 6.73052 18.3778 6.6032 18.147L9.80553 15.7451C10.1664 16.0336 10.6348 16.151 11.0891 16.0665C11.5432 15.982 11.9382 15.704 12.1712 15.3051L14.8028 16.0599C14.8028 16.0731 14.8 16.0863 14.8 16.0999C14.8 16.6715 15.105 17.1998 15.6 17.4856C16.095 17.7713 16.705 17.7713 17.2 17.4856C17.695 17.1997 18 16.6715 18 16.0999V16.0971C17.9968 15.7533 17.8828 15.4196 17.6752 15.1455L21.2352 10.6967C21.4689 10.8282 21.7319 10.898 22 10.8999C22.4809 10.9035 22.9381 10.6923 23.2473 10.3237C23.5562 9.95533 23.6844 9.46799 23.5971 8.99517C23.5098 8.52235 23.2158 8.11302 22.7955 7.87928C22.3753 7.64553 21.8726 7.6116 21.4248 7.78679C20.9769 7.96196 20.6307 8.32804 20.4805 8.78482C20.3303 9.24161 20.3921 9.7418 20.6487 10.1484L17.0487 14.6484C16.9839 14.6184 16.9171 14.5929 16.8487 14.572C16.5086 14.4738 16.1455 14.4913 15.8162 14.6216C15.4871 14.7518 15.2103 14.9877 15.0296 15.292L12.3971 14.54C12.3971 14.5268 12.4 14.5136 12.4 14.5C12.4005 14.1527 12.2885 13.8147 12.0809 13.5363C11.8732 13.2579 11.581 13.0543 11.248 12.9561C10.86 12.8399 10.4423 12.8761 10.0801 13.0574C9.71799 13.2384 9.43853 13.5509 9.29869 13.9309C9.15887 14.3111 9.16941 14.7302 9.32798 15.1029L6.05996 17.5552C5.63549 17.2817 5.10691 17.2245 4.6339 17.4009C4.16085 17.5774 3.7987 17.9668 3.65731 18.4515C3.5157 18.9361 3.61124 19.4593 3.91498 19.8625C4.21873 20.2659 4.69496 20.5022 5.19997 20.5L5.19998 20.4999ZM22 8.4999C22.2121 8.4999 22.4157 8.58419 22.5657 8.73419C22.7157 8.88419 22.8 9.08776 22.8 9.2999C22.8 9.51204 22.7157 9.71562 22.5657 9.86562C22.4157 10.0156 22.2121 10.0999 22 10.0999C21.7878 10.0999 21.5843 10.0156 21.4343 9.86562C21.2843 9.71562 21.2 9.51204 21.2 9.2999C21.2 9.08776 21.2843 8.88419 21.4343 8.73419C21.5843 8.58419 21.7878 8.4999 22 8.4999ZM15.632 15.8837C15.7081 15.6242 15.9113 15.4215 16.1709 15.3458C16.4304 15.2701 16.7108 15.3319 16.9143 15.5099C17.1181 15.6878 17.217 15.9572 17.1768 16.2246C17.1366 16.4921 16.9631 16.7205 16.7161 16.8308C16.4691 16.941 16.1831 16.918 15.9572 16.7694C15.7312 16.6208 15.5966 16.3672 15.6 16.0969C15.5997 16.0247 15.6106 15.9528 15.632 15.8837ZM10.032 14.2678C10.0907 14.0637 10.2288 13.8917 10.4152 13.7901C10.6639 13.6537 10.9663 13.6592 11.2098 13.8044C11.4536 13.9497 11.602 14.2133 11.6 14.4969V14.5026C11.6004 14.5747 11.5895 14.6467 11.5681 14.7158C11.4881 14.9901 11.2677 15.201 10.99 15.2688C10.7123 15.3367 10.4196 15.2513 10.222 15.0449C10.0245 14.8383 9.95198 14.542 10.032 14.2678ZM5.19998 18.0997C5.41213 18.0997 5.6157 18.184 5.7657 18.334C5.9157 18.484 5.99998 18.6876 5.99998 18.8997C5.99998 19.1119 5.9157 19.3154 5.7657 19.4654C5.6157 19.6154 5.41213 19.6997 5.19998 19.6997C4.98784 19.6997 4.78427 19.6154 4.63427 19.4654C4.48427 19.3154 4.39998 19.1119 4.39998 18.8997C4.39998 18.6876 4.48427 18.484 4.63427 18.334C4.78427 18.184 4.98784 18.0997 5.19998 18.0997Z" fill="#3C58F7"/>
<path d="M5.20004 14.5002C5.61432 14.5022 6.01325 14.3425 6.31181 14.0552C6.61037 13.7679 6.78518 13.3754 6.79912 12.9612C6.81323 12.5471 6.66537 12.1437 6.3868 11.837L10.3113 5.61569C10.807 5.78766 11.3564 5.69355 11.7668 5.36659L14.9368 7.86016C14.7175 8.35443 14.7634 8.92622 15.059 9.37925C15.3545 9.8321 15.8593 10.1046 16.4001 10.103H16.4036C16.8279 10.1019 17.2343 9.93264 17.5336 9.6321C17.8331 9.33156 18.0008 8.92444 18.0001 8.50012C17.9997 8.35637 17.9797 8.21333 17.9408 8.07494L20.8231 6.38529H20.8233C21.1256 6.71529 21.5524 6.90369 22.0001 6.90456H22.0061C22.431 6.90349 22.8381 6.73385 23.1379 6.43279C23.4377 6.13172 23.6058 5.72385 23.6049 5.29885C23.604 4.87402 23.4344 4.46689 23.1335 4.16687C22.8324 3.86705 22.4246 3.69903 21.9997 3.69972C21.5747 3.70043 21.1676 3.8699 20.8676 4.1708C20.5676 4.47187 20.3994 4.87955 20.4001 5.30456C20.4015 5.43063 20.4176 5.55635 20.4477 5.67885L17.5401 7.3801C17.2392 7.0751 16.8287 6.90312 16.4 6.90294H16.3956C16.0479 6.90508 15.7104 7.02169 15.4356 7.2349L12.2645 4.74009C12.421 4.38563 12.4435 3.98654 12.3279 3.61671C12.2124 3.24707 11.9667 2.93172 11.6361 2.72939C11.3058 2.52707 10.9133 2.45154 10.5313 2.51672C10.1495 2.58207 9.80417 2.7835 9.55969 3.08403C9.31522 3.38457 9.1879 3.76348 9.20165 4.15064C9.2154 4.53796 9.36915 4.90689 9.63451 5.1894L5.72004 11.3942C5.55326 11.334 5.37737 11.3022 5.20004 11.3003C4.62843 11.3003 4.1002 11.6053 3.81435 12.1003C3.52864 12.5953 3.52864 13.2053 3.81435 13.7003C4.10025 14.1953 4.62848 14.5003 5.20004 14.5003L5.20004 14.5002ZM22 4.50019C22.2122 4.50019 22.4158 4.58448 22.5657 4.73448C22.7157 4.88447 22.8 5.08805 22.8 5.30019C22.8007 5.51233 22.7172 5.71609 22.5677 5.86664C22.4183 6.01735 22.215 6.10235 22.0029 6.10307H22.0001C21.8593 6.10324 21.7213 6.06628 21.5993 5.9961C21.4776 5.92592 21.3763 5.82485 21.3061 5.70307C21.2383 5.5795 21.2018 5.4411 21.2001 5.30021C21.2001 5.08807 21.2843 4.88449 21.4343 4.73449C21.5843 4.5845 21.7879 4.50019 22 4.50019ZM16.4 7.70302C16.6859 7.70302 16.95 7.85552 17.0929 8.10302C17.2357 8.35053 17.2357 8.65553 17.0929 8.90303C16.95 9.15052 16.6859 9.30303 16.4 9.30303C16.1142 9.30303 15.85 9.15053 15.7072 8.90303C15.5643 8.65552 15.5643 8.35052 15.7072 8.10302C15.85 7.85553 16.1142 7.70302 16.4 7.70302ZM10.8 3.30019C11.0122 3.30019 11.2158 3.38448 11.3657 3.53448C11.5157 3.68447 11.6 3.88805 11.6 4.10019C11.6 4.31233 11.5157 4.51591 11.3657 4.6659C11.2158 4.8159 11.0122 4.90019 10.8 4.90019C10.5879 4.90019 10.3843 4.8159 10.2343 4.6659C10.0843 4.51591 10 4.31233 10 4.10019C10 3.88805 10.0843 3.68447 10.2343 3.53448C10.3843 3.38448 10.5879 3.30019 10.8 3.30019ZM5.20004 12.1002C5.41218 12.1002 5.61575 12.1845 5.76575 12.3345C5.91575 12.4845 6.00004 12.688 6.00004 12.9002C6.00004 13.1123 5.91575 13.3159 5.76575 13.4659C5.61575 13.6159 5.41218 13.7002 5.20004 13.7002C4.98789 13.7002 4.78432 13.6159 4.63432 13.4659C4.48432 13.3159 4.40004 13.1123 4.40004 12.9002C4.40004 12.688 4.48432 12.4845 4.63432 12.3345C4.78432 12.1845 4.98789 12.1002 5.20004 12.1002Z" fill="#3C58F7"/>
</svg>
