<svg width="130" height="130" viewBox="0 0 130 130" fill="none" xmlns="http://www.w3.org/2000/svg">
<circle cx="65" cy="65" r="65" fill="url(#paint0_radial_121_2429)" fill-opacity="0.2"/>
<path d="M42.6 82.6V79.4H44.2V77.8H42.6V74.6H45.8V73H42.6V69.8H44.2V68.2H42.6V65H45.8V63.4H42.6V60.2H44.2V58.6H42.6V55.4H45.8V53.8H42.6V50.6H44.2V49H42.6V45.8H45.8V44.2H42.6V41H41V83.4C41 83.6121 41.0843 83.8157 41.2343 83.9657C41.3843 84.1157 41.5879 84.2 41.8 84.2H89V82.6H42.6Z" fill="#3C58F7"/>
<path d="M49 85.8H50.6V89H49V85.8Z" fill="#3C58F7"/>
<path d="M52.2 85.8H53.8V89H52.2V85.8Z" fill="#3C58F7"/>
<path d="M60.2 85.8H61.8V89H60.2V85.8Z" fill="#3C58F7"/>
<path d="M63.4 85.8H65V89H63.4V85.8Z" fill="#3C58F7"/>
<path d="M71.4 85.8H73V89H71.4V85.8Z" fill="#3C58F7"/>
<path d="M74.6 85.8H76.2V89H74.6V85.8Z" fill="#3C58F7"/>
<path d="M82.6 85.8H84.2V89H82.6V85.8Z" fill="#3C58F7"/>
<path d="M85.8 85.8H87.4V89H85.8V85.8Z" fill="#3C58F7"/>
<path d="M51.4 81C52.2486 81 53.0626 80.6629 53.6629 80.0629C54.2629 79.4625 54.6 78.6486 54.6 77.8C54.5964 77.2733 54.4611 76.7558 54.2064 76.2943L60.6111 71.4904C61.3329 72.0675 62.2697 72.3022 63.1782 72.1332C64.0865 71.9643 64.8764 71.4082 65.3425 70.6104L70.6057 72.1201C70.6057 72.1465 70.6 72.1729 70.6 72.2001C70.6 73.3433 71.21 74.3997 72.2 74.9714C73.19 75.5429 74.41 75.5429 75.4 74.9714C76.39 74.3997 77 73.3432 77 72.2001V72.1944C76.9936 71.5069 76.7657 70.8394 76.3504 70.2912L83.4704 61.3937C83.9379 61.6566 84.4639 61.7962 85 61.8001C85.9618 61.8073 86.8763 61.3848 87.4946 60.6477C88.1124 59.9109 88.3689 58.9362 88.1942 57.9906C88.0196 57.0449 87.4317 56.2263 86.591 55.7588C85.7507 55.2913 84.7453 55.2235 83.8496 55.5738C82.9539 55.9242 82.2614 56.6563 81.9611 57.5699C81.6607 58.4835 81.7843 59.4839 82.2975 60.297L75.0975 69.2971C74.9679 69.2371 74.8343 69.186 74.6975 69.1442C74.0172 68.9478 73.2911 68.9828 72.6325 69.2435C71.9743 69.5038 71.4207 69.9756 71.0593 70.5842L65.7943 69.0803C65.7943 69.0539 65.8 69.0274 65.8 69.0003C65.8011 68.3056 65.5771 67.6296 65.1618 67.0728C64.7464 66.516 64.1621 66.1089 63.496 65.9125C62.72 65.68 61.8846 65.7525 61.1603 66.115C60.436 66.4771 59.8771 67.1021 59.5974 67.8621C59.3178 68.6224 59.3389 69.4606 59.656 70.206L53.12 75.1107C52.271 74.5636 51.2139 74.4493 50.2679 74.8021C49.3217 75.155 48.5975 75.9339 48.3147 76.9032C48.0314 77.8725 48.2225 78.9189 48.83 79.7253C49.4375 80.5321 50.39 81.0046 51.4 81.0003L51.4 81ZM85 57C85.4243 57 85.8315 57.1686 86.1314 57.4686C86.4314 57.7686 86.6 58.1758 86.6 58.6C86.6 59.0243 86.4314 59.4315 86.1314 59.7315C85.8315 60.0315 85.4243 60.2 85 60.2C84.5757 60.2 84.1686 60.0315 83.8686 59.7315C83.5686 59.4315 83.4 59.0243 83.4 58.6C83.4 58.1758 83.5686 57.7686 83.8686 57.4686C84.1686 57.1686 84.5757 57 85 57ZM72.264 71.7676C72.4162 71.2487 72.8226 70.8433 73.3419 70.6918C73.8608 70.5404 74.4216 70.664 74.8287 71.0201C75.2362 71.3758 75.434 71.9147 75.3537 72.4494C75.2733 72.9844 74.9262 73.4412 74.4323 73.6619C73.9383 73.8822 73.3662 73.8362 72.9144 73.539C72.4625 73.2419 72.1933 72.7347 72.2001 72.194C72.1994 72.0497 72.2212 71.9058 72.264 71.7676ZM61.064 68.5358C61.1815 68.1276 61.4576 67.7836 61.8304 67.5804C62.3279 67.3076 62.9326 67.3186 63.4197 67.609C63.9072 67.8997 64.204 68.4269 64.2001 68.994V69.0054C64.2008 69.1497 64.179 69.2936 64.1362 69.4318C63.9762 69.9804 63.5355 70.4022 62.9801 70.5379C62.4247 70.6737 61.8393 70.5029 61.444 70.0901C61.049 69.6769 60.904 69.0843 61.064 68.5358ZM51.4 76.1997C51.8243 76.1997 52.2315 76.3683 52.5314 76.6683C52.8314 76.9683 53 77.3754 53 77.7997C53 78.224 52.8314 78.6311 52.5314 78.9311C52.2315 79.2311 51.8243 79.3997 51.4 79.3997C50.9757 79.3997 50.5686 79.2311 50.2686 78.9311C49.9686 78.6311 49.8 78.224 49.8 77.7997C49.8 77.3754 49.9686 76.9683 50.2686 76.6683C50.5686 76.3683 50.9757 76.1997 51.4 76.1997Z" fill="#3C58F7"/>
<path d="M51.4 69C52.2286 69.0039 53.0264 68.6847 53.6235 68.11C54.2207 67.5354 54.5703 66.7504 54.5982 65.9221C54.6264 65.0939 54.3307 64.2871 53.7735 63.6735L61.6225 51.231C62.6139 51.5749 63.7128 51.3867 64.5336 50.7328L70.8736 55.72C70.435 56.7085 70.5268 57.8521 71.1179 58.7581C71.709 59.6638 72.7186 60.2088 73.8 60.2056H73.8072C74.6557 60.2035 75.4686 59.8649 76.0672 59.2638C76.6661 58.6628 77.0015 57.8485 77 56.9999C76.9993 56.7124 76.9593 56.4263 76.8815 56.1495L82.6461 52.7702H82.6465C83.2511 53.4302 84.1047 53.807 85 53.8088H85.0122C85.8618 53.8066 86.6761 53.4673 87.2758 52.8652C87.8754 52.2631 88.2115 51.4473 88.2097 50.5973C88.2079 49.7477 87.8686 48.9334 87.2669 48.3334C86.6648 47.7337 85.849 47.3977 84.9994 47.3991C84.1494 47.4005 83.3351 47.7394 82.7351 48.3412C82.1351 48.9434 81.7987 49.7587 81.8 50.6088C81.8029 50.8609 81.835 51.1123 81.8954 51.3573L76.0801 54.7598C75.4783 54.1498 74.6573 53.8059 73.8 53.8055H73.7911C73.0957 53.8098 72.4208 54.043 71.8711 54.4694L65.529 49.4798C65.8418 48.7709 65.8868 47.9727 65.6558 47.233C65.4247 46.4938 64.9333 45.8631 64.2722 45.4584C63.6115 45.0538 62.8265 44.9027 62.0625 45.0331C61.299 45.1638 60.6083 45.5666 60.1193 46.1677C59.6304 46.7688 59.3757 47.5266 59.4032 48.3009C59.4307 49.0756 59.7382 49.8134 60.269 50.3784L52.44 62.788C52.1064 62.6677 51.7547 62.6041 51.4 62.6002C50.2568 62.6002 49.2003 63.2102 48.6286 64.2002C48.0572 65.1902 48.0572 66.4102 48.6286 67.4002C49.2004 68.3902 50.2569 69.0002 51.4 69.0002L51.4 69ZM85 49C85.4243 49 85.8314 49.1686 86.1314 49.4686C86.4314 49.7686 86.6 50.1757 86.6 50.6C86.6014 51.0243 86.4343 51.4318 86.1354 51.7329C85.8364 52.0343 85.43 52.2043 85.0058 52.2058H85C84.7186 52.2061 84.4425 52.1322 84.1986 51.9918C83.955 51.8515 83.7525 51.6493 83.6122 51.4058C83.4765 51.1586 83.4036 50.8818 83.4 50.6001C83.4 50.1758 83.5686 49.7686 83.8686 49.4686C84.1686 49.1686 84.5757 49 85 49ZM73.8 55.4057C74.3718 55.4057 74.9 55.7107 75.1857 56.2057C75.4714 56.7007 75.4714 57.3107 75.1857 57.8057C74.9 58.3007 74.3718 58.6057 73.8 58.6057C73.2282 58.6057 72.7 58.3007 72.4143 57.8057C72.1286 57.3107 72.1286 56.7007 72.4143 56.2057C72.7 55.7107 73.2282 55.4057 73.8 55.4057ZM62.6 46.6C63.0243 46.6 63.4314 46.7686 63.7314 47.0686C64.0314 47.3686 64.2 47.7757 64.2 48.2C64.2 48.6243 64.0314 49.0314 63.7314 49.3314C63.4314 49.6314 63.0243 49.8 62.6 49.8C62.1757 49.8 61.7686 49.6314 61.4686 49.3314C61.1686 49.0314 61 48.6243 61 48.2C61 47.7757 61.1686 47.3686 61.4686 47.0686C61.7686 46.7686 62.1757 46.6 62.6 46.6ZM51.4 64.2C51.8243 64.2 52.2314 64.3686 52.5314 64.6686C52.8314 64.9686 53 65.3757 53 65.8C53 66.2243 52.8314 66.6314 52.5314 66.9314C52.2314 67.2314 51.8243 67.4 51.4 67.4C50.9757 67.4 50.5686 67.2314 50.2686 66.9314C49.9686 66.6314 49.8 66.2243 49.8 65.8C49.8 65.3757 49.9686 64.9686 50.2686 64.6686C50.5686 64.3686 50.9757 64.2 51.4 64.2Z" fill="#3C58F7"/>
<defs>
<radialGradient id="paint0_radial_121_2429" cx="0" cy="0" r="1" gradientUnits="userSpaceOnUse" gradientTransform="translate(65 65) rotate(90) scale(65)">
<stop offset="0.688785" stop-color="#3C58F7" stop-opacity="0"/>
<stop offset="1" stop-color="#3C58F7"/>
</radialGradient>
</defs>
</svg>
