<svg width="130" height="130" viewBox="0 0 130 130" fill="none" xmlns="http://www.w3.org/2000/svg">
<circle cx="65" cy="65" r="65" fill="url(#paint0_radial_121_2459)" fill-opacity="0.2"/>
<path fill-rule="evenodd" clip-rule="evenodd" d="M68.0463 42H60.3408H60.3408C59.602 42 59.0043 42 58.5199 42.0396C58.0205 42.0804 57.5792 42.1667 57.17 42.3752C56.5223 42.7053 55.9956 43.2319 55.6656 43.8797C55.4571 44.2889 55.3707 44.7302 55.3299 45.2295C55.2904 45.7139 55.2904 46.3116 55.2904 47.0504V53.6253V53.643V54.756C55.2904 55.4948 55.2904 56.0925 55.3299 56.5769C55.3707 57.0763 55.4571 57.5176 55.6656 57.9268C55.9956 58.5745 56.5223 59.1012 57.17 59.4312C57.5792 59.6397 58.0205 59.7261 58.5199 59.7669C59.0043 59.8065 59.602 59.8065 60.3408 59.8065H63.8716L63.8706 63.8896H47.0088C45.5316 63.8896 44.3298 65.0835 44.3298 66.551V70.0958C42.1816 70.2572 40.1835 71.1653 38.6431 72.6956C36.9389 74.3874 36 76.6397 36 79.0337C36 81.4278 36.9389 83.6801 38.6431 85.3731C40.3472 87.066 42.6145 87.9988 45.0244 87.9988C47.4342 87.9988 49.7015 87.066 51.4057 85.3731C53.1098 83.6801 54.0487 81.4278 54.0487 79.0337C54.0487 76.6397 53.1098 74.3874 51.4057 72.6944C49.8665 71.1653 47.8683 70.256 45.7189 70.0946V66.551C45.7189 65.845 46.2969 65.2708 47.0088 65.2708H63.8693V70.0958C61.7211 70.2572 59.723 71.1653 58.1826 72.6956C56.4784 74.3886 55.5395 76.6397 55.5395 79.035C55.5395 81.429 56.4784 83.6814 58.1826 85.3743C59.8868 87.0673 62.1528 88 64.5639 88C66.975 88 69.241 87.0673 70.9452 85.3743C72.6494 83.6814 73.5883 81.429 73.5883 79.035C73.5883 76.6409 72.6494 74.3886 70.9452 72.6956C69.406 71.1666 67.4079 70.2572 65.2585 70.0958L65.2597 65.2708H82.1202C82.8309 65.2708 83.4089 65.845 83.4089 66.551C83.4089 66.5571 83.4089 66.5645 83.4101 66.5707V70.0958C81.2619 70.2572 79.2638 71.1653 77.7234 72.6956C76.0192 74.3886 75.0803 76.6409 75.0803 79.035C75.0803 81.429 76.0192 83.6814 77.7234 85.3743C79.4275 87.0673 81.6948 88 84.1047 88C86.5146 88 88.7818 87.0673 90.486 85.3743C92.1901 83.6814 93.129 81.429 93.129 79.035C93.129 76.6409 92.1901 74.3886 90.486 72.6956H90.4872C88.948 71.1666 86.9499 70.2572 84.8005 70.0958V66.551H84.7992C84.7992 65.0835 83.5986 63.8908 82.1215 63.8896H65.2597V59.8065H68.0463C68.7851 59.8065 69.3828 59.8065 69.8672 59.7669C70.3666 59.7261 70.8079 59.6397 71.217 59.4312C71.8648 59.1012 72.3915 58.5745 72.7215 57.9268C72.93 57.5176 73.0164 57.0763 73.0572 56.5769C73.0967 56.0925 73.0967 55.4948 73.0967 54.756V48.1812V48.1634V47.0504C73.0967 46.3116 73.0967 45.7139 73.0572 45.2295C73.0164 44.7302 72.93 44.2889 72.7215 43.8797C72.3915 43.2319 71.8648 42.7053 71.217 42.3752C70.8079 42.1667 70.3666 42.0804 69.8672 42.0396C69.3828 42 68.7851 42 68.0463 42ZM56.7149 54.7257V54.0001L62.2854 50.0211L62.2964 50.0133L62.3058 50.0228L65.0857 52.8027L65.0858 52.8028C65.1528 52.8698 65.228 52.9451 65.2991 53.0061C65.3811 53.0767 65.4948 53.1619 65.6477 53.22C65.8535 53.2984 66.0773 53.3169 66.2932 53.2735C66.4535 53.2412 66.5797 53.1758 66.6722 53.1198C66.7524 53.0712 66.839 53.0093 66.9161 52.9542L66.9161 52.9542L71.6722 49.557V54.7257C71.6722 55.502 71.6717 56.0414 71.6374 56.4609C71.6038 56.8722 71.5414 57.1052 71.4523 57.2801C71.2588 57.6598 70.9501 57.9685 70.5703 58.162C70.3955 58.2511 70.1625 58.3135 69.7512 58.3471C69.3317 58.3814 68.7923 58.3819 68.016 58.3819H60.3711C59.5948 58.3819 59.0554 58.3814 58.6359 58.3471C58.2246 58.3135 57.9916 58.2511 57.8168 58.162C57.437 57.9685 57.1283 57.6598 56.9348 57.2801C56.8457 57.1052 56.7833 56.8722 56.7497 56.4609C56.7154 56.0414 56.7149 55.502 56.7149 54.7257ZM71.6722 47.0808V47.8064L66.1017 51.7854L66.0907 51.7931L66.0813 51.7837L63.3131 49.0155L63.3014 49.0037C63.2343 48.9367 63.1591 48.8614 63.088 48.8003C63.006 48.7298 62.8923 48.6446 62.7394 48.5864C62.5336 48.5081 62.3098 48.4895 62.0939 48.533C61.9336 48.5652 61.8074 48.6306 61.7149 48.6867C61.6347 48.7352 61.5481 48.7971 61.471 48.8523L61.4575 48.8619L56.7149 52.2495V47.0808C56.7149 46.3045 56.7154 45.7651 56.7497 45.3455C56.7833 44.9343 56.8457 44.7013 56.9348 44.5264C57.1283 44.1467 57.437 43.838 57.8168 43.6445C57.9916 43.5554 58.2246 43.4929 58.6359 43.4593C59.0554 43.4251 59.5948 43.4245 60.3711 43.4245H68.016C68.7923 43.4245 69.3317 43.4251 69.7512 43.4593C70.1625 43.4929 70.3955 43.5554 70.5703 43.6445C70.9501 43.838 71.2588 44.1467 71.4523 44.5264C71.5414 44.7013 71.6038 44.9343 71.6374 45.3455C71.6717 45.7651 71.6722 46.3045 71.6722 47.0808ZM43.0399 81.8615C43.0374 81.8627 43.0349 81.8627 43.0324 81.8627C42.1766 81.9305 41.3258 82.2459 40.6957 82.7289C40.2616 83.0604 39.7519 83.621 39.6775 84.4404C41.0567 85.7871 42.9444 86.6188 45.0268 86.6188C47.1093 86.6188 48.997 85.7871 50.3762 84.4404C50.303 83.6222 49.792 83.0616 49.3579 82.7289C48.7291 82.2459 47.877 81.9293 47.0212 81.8615H47.015C46.5474 81.8282 46.1815 81.5806 46.0091 81.1752C45.8938 80.9057 45.8938 80.6374 45.8938 80.4576V80.4519V80.4273C45.8938 80.1377 46.0005 79.8593 46.1927 79.6424C46.2101 79.6239 46.2274 79.6067 46.2448 79.5907C46.6987 79.0473 47.051 78.2711 47.2122 77.4566C47.3834 76.6015 47.3251 75.8068 47.051 75.2203C46.7074 74.4872 46.0278 74.1151 45.0268 74.1151C44.0259 74.1151 43.345 74.4859 43.0027 75.2203C42.7286 75.8068 42.6715 76.6003 42.8414 77.4566C43.0027 78.2711 43.3549 79.0473 43.8089 79.5907C43.8262 79.6067 43.8436 79.6239 43.8597 79.6424C44.052 79.8593 44.1586 80.1377 44.1586 80.4273V80.4532C44.1586 80.6331 44.1586 80.9041 44.0433 81.1764C43.8709 81.5806 43.5062 81.8295 43.0399 81.8615ZM51.4429 83.1405C52.2131 81.9551 52.6608 80.5456 52.6608 79.0337C52.6608 74.8519 49.2364 71.4487 45.0281 71.4487C40.8185 71.4487 37.3928 74.8506 37.3928 79.0337C37.3928 80.5468 37.8406 81.9564 38.6108 83.1405C39.3203 81.6188 41.0653 80.6836 42.7645 80.5012C42.1543 79.7829 41.6855 78.7701 41.4771 77.7215C41.2502 76.583 41.3444 75.4864 41.7413 74.6375C42.3156 73.409 43.4827 72.7326 45.0256 72.7326C46.5698 72.7326 47.7356 73.409 48.3099 74.6375C48.7055 75.4864 48.7998 76.5818 48.5741 77.7215C48.3669 78.7701 47.8981 79.7829 47.2879 80.5012C48.9871 80.6823 50.7322 81.6188 51.4429 83.1405ZM62.5794 81.8615C62.577 81.8627 62.5745 81.8627 62.572 81.8627C61.7162 81.9305 60.8641 82.2459 60.2378 82.7289C59.8037 83.0604 59.2939 83.621 59.2195 84.4404C60.5974 85.7871 62.4864 86.6188 64.5676 86.6188C66.6488 86.6188 68.5365 85.7871 69.9158 84.4404C69.8426 83.6222 69.3316 83.0616 68.8975 82.7289C68.2674 82.2459 67.4166 81.9293 66.5608 81.8615H66.5546C66.087 81.8282 65.7211 81.5806 65.5487 81.1752C65.4333 80.9057 65.4333 80.6374 65.4333 80.4576V80.4519V80.4261C65.4333 80.1365 65.54 79.858 65.7323 79.6412C65.7496 79.6227 65.767 79.6055 65.7843 79.5894C66.2383 79.0461 66.5905 78.2698 66.7518 77.4554C66.9229 76.6003 66.8646 75.8055 66.5905 75.2191C66.247 74.4859 65.5673 74.1138 64.5664 74.1138C63.5655 74.1138 62.8845 74.4847 62.5422 75.2191C62.2681 75.8055 62.2111 76.599 62.381 77.4554C62.5422 78.2711 62.8945 79.0473 63.3484 79.5907C63.3658 79.6055 63.3831 79.6227 63.3993 79.6412C63.5915 79.8593 63.6982 80.1377 63.6982 80.4273V80.4519C63.6982 80.6331 63.6982 80.9041 63.5828 81.1764C63.4104 81.5806 63.0458 81.8295 62.5794 81.8615ZM70.9836 83.1405C71.7539 81.9551 72.2016 80.5456 72.2016 79.0337C72.2016 74.8519 68.7759 71.4487 64.5689 71.4487C60.3593 71.4487 56.9336 74.8506 56.9336 79.0337C56.9336 80.5468 57.3814 81.9564 58.1516 83.1405C58.861 81.6188 60.6061 80.6836 62.3053 80.5012C61.6951 79.7829 61.2263 78.7701 61.0179 77.7215C60.7909 76.583 60.8852 75.4864 61.2821 74.6375C61.8563 73.409 63.0222 72.7326 64.5664 72.7326C66.1105 72.7326 67.2764 73.409 67.8507 74.6375C68.2463 75.4864 68.3406 76.5818 68.1148 77.7215C67.9077 78.7701 67.4389 79.7829 66.8287 80.5012C68.5279 80.6823 70.273 81.6188 70.9836 83.1405ZM91.7411 79.0337C91.7411 74.8506 88.3167 71.4487 84.1059 71.4487C79.8951 71.4487 76.4694 74.8519 76.4732 79.0337C76.4732 80.5468 76.9209 81.9564 77.6911 83.1405C78.4006 81.6188 80.1457 80.6836 81.8449 80.5012C81.2346 79.7829 80.7658 78.7701 80.5574 77.7215C80.3305 76.583 80.4247 75.4864 80.8216 74.6375C81.3959 73.409 82.5618 72.7326 84.1059 72.7326C85.6501 72.7326 86.816 73.409 87.3902 74.6375C87.7859 75.4864 87.8801 76.5818 87.6544 77.7215C87.4473 78.7701 86.9784 79.7829 86.3682 80.5012C88.0674 80.6823 89.8125 81.6188 90.5232 83.1405C91.2934 81.9551 91.7411 80.5456 91.7411 79.0337ZM78.7565 84.4416C80.1357 85.7871 82.0247 86.6188 84.1059 86.6188C86.1859 86.6188 88.0748 85.7871 89.4553 84.4404C89.3821 83.6222 88.8711 83.0616 88.437 82.7289C87.8069 82.2459 86.9561 81.9293 86.1003 81.8615H86.0941C85.6265 81.8282 85.2606 81.5806 85.0882 81.1752C84.9729 80.9057 84.9729 80.6374 84.9729 80.4576V80.4519V80.4261C84.9729 80.1377 85.0795 79.858 85.2718 79.6412C85.2879 79.6227 85.3053 79.6055 85.3226 79.5894C85.7766 79.0461 86.1288 78.2698 86.2901 77.4554C86.4612 76.6003 86.4029 75.8055 86.1288 75.2191C85.7853 74.4859 85.1044 74.1138 84.1047 74.1138C83.1038 74.1138 82.4228 74.4847 82.0805 75.2191C81.8064 75.8055 81.7494 76.599 81.9193 77.4554C82.0818 78.2698 82.4328 79.0461 82.8867 79.5894C82.9053 79.6067 82.9227 79.6239 82.9388 79.6424C83.1311 79.8593 83.2377 80.1377 83.2377 80.4273V80.4532C83.2377 80.6331 83.2377 80.9041 83.1224 81.1764C82.95 81.5806 82.5853 81.8295 82.119 81.8615C82.1165 81.8627 82.114 81.8627 82.1115 81.8627C81.2557 81.9317 80.4037 82.2472 79.7748 82.7302C79.3407 83.0616 78.831 83.6222 78.7565 84.4416Z" fill="#3C58F7"/>
<defs>
<radialGradient id="paint0_radial_121_2459" cx="0" cy="0" r="1" gradientUnits="userSpaceOnUse" gradientTransform="translate(65 65) rotate(90) scale(65)">
<stop offset="0.688785" stop-color="#3C58F7" stop-opacity="0"/>
<stop offset="1" stop-color="#3C58F7"/>
</radialGradient>
</defs>
</svg>
