<svg width="130" height="130" viewBox="0 0 130 130" fill="none" xmlns="http://www.w3.org/2000/svg">
<circle cx="65" cy="65" r="65" fill="url(#paint0_radial_121_2451)" fill-opacity="0.2"/>
<path d="M47.927 72.0875C46.908 71.2245 46.1912 70.2096 45.9184 68.9288C45.3715 66.363 46.5362 63.975 48.8603 62.7824C49.081 62.6684 49.3351 62.355 49.3458 62.1243C49.4701 59.3646 50.7365 57.328 53.0526 55.9277C53.1061 55.8952 53.1542 55.8545 53.2492 55.7853C51.7836 54.537 51.0146 52.9699 51.143 51.0296C51.238 49.5955 51.8384 48.3798 52.8895 47.4096C55.0585 45.4043 58.4043 45.5589 60.4008 47.7434C62.2221 49.7366 62.5938 53.2548 59.7682 55.7459C60.3954 56.2615 61.0132 56.792 61.6591 57.2819C61.7754 57.37 62.0309 57.3483 62.1913 57.2886C63.7398 56.7079 65.2777 56.7106 66.8262 57.2941C66.9907 57.3565 67.2635 57.3253 67.4026 57.2222C68.023 56.7595 68.6141 56.2547 69.2132 55.7663C66.6216 52.7867 66.4932 49.7081 68.8909 47.449C71.0225 45.4409 74.3308 45.5345 76.3607 47.6498C78.1901 49.5575 78.7531 53.1232 75.7657 55.7975C75.9181 55.8952 76.0572 55.9834 76.1949 56.0743C78.3225 57.4677 79.5206 59.4175 79.6223 62.0104C79.637 62.3821 79.7186 62.6074 80.0863 62.7892C83.6728 64.5707 84.3053 69.0414 81.3794 71.8039C81.3005 71.8785 81.2203 71.9545 81.1106 72.059C81.5466 72.3683 81.9785 72.6315 82.3623 72.9545C83.9911 74.3221 84.895 76.0765 84.9739 78.2311C85.0114 79.2474 85.0033 80.2664 84.9819 81.2826C84.9485 82.8525 83.8493 83.9759 82.3128 83.9841C79.3495 84.0003 76.3848 84.0166 73.4228 83.9651C72.8117 83.9542 72.2073 83.6448 71.4825 83.44C70.9396 83.8959 70.1466 84.0017 69.2974 83.9976C66.0667 83.9773 62.8359 84.0153 59.6051 83.9705C58.8589 83.9596 58.1154 83.7032 57.1432 83.5159C56.6271 83.9474 55.7391 84.0071 54.8111 83.9976C52.1821 83.9732 49.553 83.9922 46.924 83.9881C45.092 83.9854 44.0195 82.9094 44.0182 81.0452C44.0182 79.8254 43.938 78.5866 44.1145 77.3899C44.4622 75.0128 45.7941 73.2665 47.927 72.0875ZM64.47 82.1958C66.1616 82.1958 67.8532 82.2012 69.5448 82.193C70.3632 82.189 70.7443 81.8932 70.743 81.1632C70.739 79.0873 70.8058 77.0019 70.6347 74.9381C70.3846 71.9138 67.6058 69.5271 64.5275 69.5027C61.4478 69.4783 58.6209 71.8907 58.3601 74.9449C58.1916 76.9177 58.2652 78.9136 58.2465 80.9C58.2371 81.8891 58.546 82.1903 59.5275 82.1944C61.175 82.1998 62.8225 82.1971 64.47 82.1958ZM51.0989 82.1958C52.5244 82.1958 53.9486 82.2066 55.3741 82.1917C56.1497 82.1835 56.4666 81.8471 56.4759 81.0696C56.4853 80.189 56.4907 79.3071 56.4746 78.4265C56.4238 75.6885 54.2789 73.3764 51.591 73.1485C48.8764 72.9178 46.3637 74.7889 45.9184 77.5025C45.7339 78.626 45.8021 79.7955 45.7834 80.9448C45.7673 81.8891 46.0802 82.1917 47.0243 82.1958C48.383 82.2012 49.7403 82.1971 51.0989 82.1958ZM77.8852 82.1958C79.288 82.1958 80.6907 82.2053 82.0935 82.1917C82.9065 82.1835 83.2141 81.8525 83.2208 81.0262C83.2275 80.1456 83.2368 79.2637 83.2168 78.3831C83.1553 75.6817 81.0277 73.3968 78.3599 73.1485C75.66 72.8975 73.1099 74.7794 72.6659 77.4754C72.4814 78.5988 72.5469 79.7684 72.5269 80.9176C72.5095 81.9013 72.8144 82.1917 73.8106 82.1944C75.1693 82.1998 76.5266 82.1971 77.8852 82.1958ZM77.8103 62.2492C78.0109 60.1922 76.4263 57.9114 74.2974 57.1557C72.3062 56.4488 69.7146 57.0987 68.7826 58.5383C71.5614 61.3442 71.4477 65.8651 67.9896 68.496C70.1974 69.671 71.6536 71.4606 72.2969 73.8785C73.0725 73.253 73.8253 72.6465 74.5916 72.0291C72.7275 70.3521 71.992 68.2789 72.8705 65.8393C73.6849 63.5775 75.4247 62.4568 77.8103 62.2492ZM60.247 58.5125C58.8362 56.8355 56.167 56.3741 54.0957 57.4189C52.2409 58.3551 50.8702 60.6644 51.2259 62.256C53.4284 62.4242 55.12 63.4418 55.9999 65.5191C57.0844 68.0753 56.3449 70.2653 54.4219 72.0373C55.1935 72.6614 55.9357 73.2625 56.6712 73.8568C57.8172 70.8907 58.0726 70.5705 60.9718 68.4715C57.5123 65.8325 57.4709 61.2967 60.247 58.5125ZM68.9364 63.2071C68.9444 60.6929 66.9653 58.6577 64.5061 58.6522C62.0777 58.6468 60.0838 60.6549 60.0638 63.1284C60.0437 65.648 62.0041 67.69 64.4606 67.7063C66.9318 67.7226 68.9283 65.7158 68.9364 63.2071ZM60.0517 51.3973C60.0263 49.4164 58.3802 47.7719 56.4479 47.7977C54.4995 47.8235 52.8734 49.4991 52.9002 51.4543C52.9282 53.4353 54.5744 55.0797 56.504 55.054C58.4551 55.0268 60.0771 53.3566 60.0517 51.3973ZM72.5563 55.054C74.5113 55.0228 76.1294 53.3498 76.0986 51.3933C76.0679 49.4096 74.4204 47.7678 72.4908 47.799C70.5384 47.8303 68.9163 49.5073 68.9471 51.4597C68.9792 53.4421 70.628 55.0852 72.5563 55.054ZM51.1243 64.0795C49.184 64.0822 47.5472 65.7457 47.5525 67.7104C47.5565 69.6805 49.1933 71.3385 51.1323 71.3358C53.07 71.3331 54.7094 69.6669 54.7054 67.7036C54.7001 65.7348 53.0633 64.0768 51.1243 64.0795ZM81.4476 67.7266C81.4663 65.7674 79.8389 64.0985 77.8905 64.0795C75.9596 64.0605 74.3121 65.7145 74.296 67.6887C74.28 69.6506 75.9047 71.3168 77.8531 71.3358C79.7841 71.3534 81.4289 69.7035 81.4476 67.7266Z" fill="#3C58F7"/>
<defs>
<radialGradient id="paint0_radial_121_2451" cx="0" cy="0" r="1" gradientUnits="userSpaceOnUse" gradientTransform="translate(65 65) rotate(90) scale(65)">
<stop offset="0.688785" stop-color="#3C58F7" stop-opacity="0"/>
<stop offset="1" stop-color="#3C58F7"/>
</radialGradient>
</defs>
</svg>
